<svg width="1152" height="700" viewBox="0 0 1152 700" fill="none" xmlns="http://www.w3.org/2000/svg">
<g clip-path="url(#clip0)">
<path d="M729.201 270.281C729.201 270.281 725.477 272.448 731.855 273.18C739.583 274.062 743.532 273.936 752.046 272.327C752.046 272.327 754.289 273.729 757.416 274.945C738.323 283.124 714.206 274.47 729.201 270.281ZM726.866 259.605C726.866 259.605 722.688 262.698 729.072 263.359C737.327 264.212 743.845 264.281 755.13 262.109C755.13 262.109 756.687 263.691 759.139 264.555C736.059 271.305 710.353 265.087 726.866 259.605V259.605Z" fill="#0074BD"/>
<path d="M746.533 241.493C751.24 246.911 745.298 251.782 745.298 251.782C745.298 251.782 757.243 245.617 751.759 237.894C746.634 230.695 742.706 227.119 763.973 214.784C763.973 214.785 730.59 223.12 746.533 241.493V241.493Z" fill="#EA2D2E"/>
<path d="M771.784 278.179C771.784 278.179 774.541 280.452 768.746 282.209C757.729 285.547 722.882 286.553 713.204 282.343C709.727 280.829 716.25 278.73 718.302 278.287C720.442 277.823 721.664 277.908 721.664 277.908C717.795 275.184 696.654 283.259 710.927 285.576C749.85 291.885 781.878 282.734 771.784 278.179V278.179ZM730.994 248.542C730.994 248.542 713.27 252.752 724.718 254.283C729.552 254.93 739.185 254.781 748.164 254.028C755.5 253.412 762.862 252.095 762.862 252.095C762.862 252.095 760.277 253.204 758.405 254.48C740.404 259.216 705.637 257.01 715.647 252.17C724.109 248.077 730.994 248.542 730.994 248.542V248.542ZM762.788 266.313C781.086 256.808 772.625 247.673 766.72 248.903C765.276 249.204 764.628 249.466 764.628 249.466C764.628 249.466 765.166 248.623 766.191 248.26C777.873 244.155 786.855 260.372 762.423 266.795C762.423 266.794 762.703 266.54 762.788 266.313V266.313Z" fill="#0074BD"/>
<path d="M751.759 194.865C751.759 194.865 761.89 205.002 742.147 220.586C726.314 233.091 738.537 240.219 742.141 248.366C732.898 240.028 726.119 232.687 730.666 225.855C737.345 215.828 755.845 210.965 751.759 194.865V194.865Z" fill="#EA2D2E"/>
<path d="M732.792 292.079C750.352 293.202 777.323 291.454 777.962 283.145C777.962 283.145 776.734 286.295 763.448 288.794C748.459 291.616 729.969 291.287 719.005 289.477C719.005 289.477 721.252 291.337 732.792 292.079V292.079Z" fill="#0074BD"/>
</g>
<path d="M575.429 291.864C571.471 291.883 567.693 292.219 564.367 292.808C554.57 294.538 552.792 298.161 552.792 304.843V313.665H575.942V316.606H544.103C537.376 316.606 531.485 320.65 529.642 328.345C527.515 337.162 527.422 342.665 529.642 351.872C531.287 358.726 535.217 363.609 541.945 363.609H549.906V353.032C549.906 345.39 556.516 338.651 564.367 338.651H587.491C593.928 338.651 599.065 333.35 599.065 326.887V304.843C599.065 298.569 593.772 293.856 587.491 292.809C583.512 292.147 579.386 291.846 575.429 291.864V291.864ZM562.91 298.96C565.3 298.96 567.254 300.944 567.254 303.386C567.254 305.817 565.301 307.783 562.91 307.783C560.51 307.783 558.566 305.817 558.566 303.386C558.565 300.944 560.51 298.96 562.91 298.96V298.96Z" fill="#03599C"/>
<path d="M601.952 316.606V326.887C601.952 334.856 595.194 341.563 587.49 341.563H564.367C558.033 341.563 552.792 346.985 552.792 353.328V375.373C552.792 381.646 558.247 385.337 564.367 387.136C571.694 389.29 578.722 389.68 587.49 387.136C593.317 385.448 599.064 382.052 599.064 375.373V366.55H575.942V363.608H610.641C617.368 363.608 619.877 358.916 622.217 351.871C624.634 344.62 624.53 337.646 622.217 328.344C620.554 321.645 617.378 316.605 610.641 316.605H601.952V316.606ZM588.946 372.432C591.347 372.432 593.29 374.398 593.29 376.83C593.29 379.27 591.346 381.254 588.946 381.254C586.555 381.254 584.602 379.27 584.602 376.83C584.602 374.398 586.555 372.432 588.946 372.432Z" fill="#FFD845"/>
<path d="M204.698 229.159L196.844 141.056H283.156L275.294 229.145L239.948 238.945L204.698 229.159V229.159Z" fill="#1572B6"/>
<path d="M240.001 231.455L268.562 223.536L275.282 148.259H240.001V231.455Z" fill="#33A9DC"/>
<path d="M240.001 180.179H254.299L255.287 169.114H240.001V158.309H267.096L266.837 161.208L264.18 190.984H240.001V180.179V180.179Z" fill="white"/>
<path d="M240.065 208.241L240.017 208.255L227.984 205.006L227.214 196.388H216.369L217.882 213.355L240.016 219.498L240.065 219.484V208.241V208.241Z" fill="#EBEBEB"/>
<path d="M253.38 190.527L252.079 204.998L240.027 208.251V219.493L262.179 213.354L262.341 211.528L264.221 190.527H253.38Z" fill="white"/>
<path d="M240.038 158.309V169.114H213.938L213.721 166.686L213.229 161.208L212.97 158.309H240.038V158.309ZM240.001 180.18V190.986H228.119L227.902 188.558L227.409 183.08L227.152 180.18H240.001V180.18Z" fill="#EBEBEB"/>
<path d="M63.99 277.99H152.01V366.011H63.99V277.99Z" fill="#F0DB4F"/>
<path d="M144.806 345.018C144.162 341.002 141.543 337.629 133.787 334.484C131.093 333.246 128.089 332.359 127.194 330.317C126.876 329.129 126.834 328.46 127.035 327.74C127.612 325.406 130.399 324.678 132.607 325.348C134.03 325.824 135.376 326.92 136.188 328.669C139.987 326.21 139.979 326.226 142.631 324.535C141.66 323.03 141.142 322.335 140.506 321.691C138.222 319.14 135.109 317.826 130.131 317.926L127.538 318.261C125.053 318.889 122.685 320.194 121.296 321.942C117.129 326.67 118.318 334.945 123.388 338.35C128.383 342.099 135.721 342.952 136.658 346.458C137.57 350.749 133.504 352.139 129.462 351.645C126.484 351.026 124.827 349.512 123.036 346.759C119.74 348.667 119.74 348.667 116.351 350.616C117.155 352.373 117.999 353.168 119.346 354.69C125.722 361.158 141.678 360.84 144.539 351.051C144.655 350.715 145.426 348.473 144.806 345.018V345.018ZM111.84 318.444H103.608L103.574 339.729C103.574 344.256 103.808 348.406 103.072 349.678C101.867 352.18 98.7462 351.869 97.3238 351.384C95.876 350.673 95.1398 349.661 94.287 348.231C94.0528 347.82 93.877 347.502 93.818 347.478L87.1242 351.577C88.2373 353.861 89.877 355.844 91.9772 357.132C95.1145 359.015 99.3312 359.593 103.741 358.58C106.611 357.744 109.088 356.012 110.384 353.376C112.259 349.92 111.857 345.738 111.84 341.111C111.882 333.563 111.84 326.016 111.84 318.444Z" fill="white"/>
<path d="M506.52 473.141C497.903 485.525 498.976 501.638 505.558 514.798C505.714 515.113 505.878 515.423 506.04 515.734L506.348 516.327L506.54 516.668L506.883 517.282C507.088 517.642 507.297 518.001 507.511 518.359L507.87 518.95C508.107 519.334 508.35 519.712 508.598 520.091L508.909 520.57C509.252 521.082 509.603 521.593 509.966 522.095L509.996 522.134L510.174 522.374C510.488 522.806 510.81 523.233 511.137 523.655L511.499 524.116C511.791 524.482 512.087 524.846 512.388 525.209L512.728 525.615C513.133 526.091 513.546 526.566 513.967 527.03L513.993 527.056L514.041 527.109C514.452 527.559 514.873 527.998 515.3 528.437L515.704 528.844C516.034 529.177 516.37 529.504 516.709 529.83L517.121 530.22C517.574 530.648 518.032 531.066 518.499 531.476L518.521 531.493L518.761 531.698C519.173 532.054 519.591 532.408 520.013 532.755L520.532 533.168C520.877 533.445 521.225 533.716 521.576 533.984L522.134 534.408C522.521 534.693 522.911 534.973 523.305 535.248L523.731 535.55L523.848 535.634C524.222 535.891 524.604 536.138 524.986 536.386L525.478 536.714C526.064 537.084 526.658 537.451 527.259 537.805L527.751 538.082C528.192 538.337 528.637 538.587 529.087 538.831C529.33 538.962 529.58 539.087 529.826 539.212C530.144 539.379 530.459 539.548 530.783 539.709L531.004 539.816L531.395 540.005C531.896 540.245 532.401 540.48 532.911 540.706L533.231 540.85C533.816 541.105 534.405 541.351 534.999 541.585L535.43 541.755C535.98 541.966 536.538 542.176 537.098 542.373L537.307 542.445C537.922 542.66 538.542 542.859 539.167 543.054L539.616 543.188C540.252 543.38 540.881 543.609 541.537 543.73C583.208 551.329 595.313 518.688 595.313 518.688C585.146 531.933 567.101 535.427 550.003 531.537C549.355 531.391 548.727 531.188 548.095 531.002L547.62 530.857C547.002 530.668 546.391 530.469 545.782 530.259L545.53 530.168C544.984 529.977 544.446 529.774 543.909 529.567L543.455 529.388C542.867 529.156 542.283 528.914 541.705 528.661L541.356 528.506C540.86 528.281 540.37 528.055 539.88 527.82L539.454 527.615C539.07 527.428 538.691 527.23 538.313 527.034C538.059 526.901 537.802 526.775 537.551 526.636C537.088 526.388 536.635 526.131 536.183 525.869L535.721 525.611C535.12 525.258 534.527 524.891 533.94 524.52L533.459 524.199C533.034 523.925 532.609 523.645 532.191 523.356L531.784 523.07C531.38 522.784 530.981 522.496 530.585 522.203L530.055 521.802C529.691 521.524 529.33 521.245 528.973 520.956L528.491 520.57C528.037 520.195 527.588 519.82 527.145 519.434L526.997 519.31C526.517 518.889 526.047 518.457 525.581 518.023L525.182 517.64C524.838 517.312 524.498 516.981 524.165 516.642L523.766 516.245C523.342 515.81 522.926 515.37 522.518 514.924L522.456 514.859C522.025 514.387 521.603 513.905 521.19 513.418L520.859 513.024C520.551 512.653 520.245 512.277 519.947 511.898L519.613 511.482C519.255 511.016 518.904 510.553 518.561 510.08C509.069 497.132 505.658 479.274 513.245 464.609L506.52 473.141ZM533.267 462.707C527.035 471.674 527.374 483.679 532.235 493.162C533.05 494.752 533.966 496.295 534.991 497.763C535.925 499.102 536.96 500.694 538.199 501.769C538.648 502.263 539.118 502.746 539.598 503.22L539.966 503.584C540.432 504.035 540.905 504.479 541.395 504.91L541.452 504.96L541.466 504.974C542.008 505.449 542.566 505.905 543.134 506.355L543.513 506.65C544.083 507.087 544.663 507.515 545.258 507.924L545.309 507.962C545.571 508.144 545.838 508.312 546.105 508.487L546.482 508.737C546.907 509.009 547.338 509.275 547.775 509.53L547.959 509.636C548.336 509.853 548.718 510.067 549.102 510.275L549.509 510.487C549.773 510.625 550.038 510.766 550.308 510.901L550.429 510.955C550.978 511.226 551.532 511.487 552.098 511.733L552.466 511.884C552.919 512.077 553.376 512.264 553.834 512.439L554.42 512.654C554.836 512.809 555.254 512.949 555.675 513.091L556.243 513.273C556.842 513.459 557.434 513.694 558.059 513.798C590.233 519.128 597.661 494.355 597.661 494.355C590.966 503.998 577.998 508.6 564.162 505.008C563.547 504.846 562.941 504.671 562.339 504.481L561.791 504.304C561.363 504.166 560.938 504.019 560.517 503.865L559.942 503.651C559.48 503.473 559.023 503.29 558.57 503.098L558.201 502.941C557.633 502.695 557.073 502.434 556.523 502.161C556.239 502.023 555.96 501.877 555.68 501.733L555.195 501.483C554.837 501.289 554.48 501.087 554.13 500.881L553.875 500.737C553.439 500.483 553.01 500.22 552.585 499.949L552.196 499.69C551.916 499.509 551.636 499.323 551.361 499.137C550.768 498.728 550.191 498.3 549.622 497.866L549.23 497.557C543.174 492.776 538.373 486.24 536.091 478.83C533.698 471.145 534.214 462.519 538.359 455.517L533.267 462.707ZM555.763 454.912C552.09 460.318 551.729 467.032 554.278 473.002C556.966 479.341 562.474 484.312 568.903 486.67C569.168 486.768 569.434 486.855 569.702 486.947L570.054 487.059C570.433 487.177 570.809 487.316 571.2 487.39C588.966 490.823 593.784 478.273 595.066 476.426C590.846 482.503 583.752 483.962 575.048 481.849C574.361 481.683 573.605 481.434 572.943 481.199C572.093 480.896 571.255 480.551 570.442 480.161C568.897 479.418 567.423 478.517 566.058 477.486C558.27 471.576 553.431 460.303 558.513 451.123" fill="#0868AC"/>
<path d="M100.227 99.1271C98.5862 98.5871 96.2237 98.7031 93.1398 98.7031H80.75V114.875H93.9997C96.0697 114.875 97.5237 114.654 98.3612 114.499C99.837 114.234 101.071 113.723 102.062 113.105C103.053 112.489 103.868 111.555 104.508 110.376C105.146 109.198 105.466 107.819 105.466 106.277C105.466 104.472 105.004 103.085 104.078 101.752C103.152 100.419 101.869 99.6671 100.227 99.1271V99.1271ZM98.5264 91.733C100.156 91.2493 101.384 90.4041 102.21 89.2812C103.037 88.1577 103.45 86.7282 103.45 85.0316C103.45 83.4242 103.064 81.9983 102.292 80.7748C101.521 79.5514 100.421 79.0782 98.9884 78.6261C97.5561 78.1754 95.1001 78.3125 91.6196 78.3125H80.75V92.375H92.4127C95.2548 92.375 97.2917 92.1078 98.5264 91.733V91.733ZM135.594 66.0957C135.594 59.6396 130.36 54.4062 123.904 54.4062H59.3926C52.9365 54.4062 47.7031 59.6396 47.7031 66.0957V130.607C47.7031 137.064 52.9365 142.297 59.3926 142.297H123.904C130.36 142.297 135.594 137.064 135.594 130.607V66.0957ZM110.67 112.586C109.712 114.536 108.528 116.039 107.118 117.097C105.707 118.154 103.939 119.052 101.814 119.592C99.6887 120.132 97.0829 120.5 93.9997 120.5H74.4219V71.9844H93.7016C97.4028 71.9844 100.371 72.4126 102.607 73.392C104.843 74.3729 106.594 75.8509 107.862 77.8885C109.128 79.9262 109.762 82.0419 109.762 84.2666C109.762 86.3373 109.199 88.28 108.076 90.1081C106.953 91.9377 105.256 93.4086 102.988 94.5322C105.917 95.3914 108.17 96.8553 109.745 98.9253C111.32 100.996 112.107 103.441 112.107 106.26C112.107 108.529 111.628 110.637 110.67 112.586V112.586Z" fill="#5B4282"/>
<path d="M623.156 110.984L585.422 89.2656C584.797 88.875 583.938 88.7188 583 88.7188C582.062 88.7188 581.203 88.9531 580.578 89.2656L543.078 111.062C541.75 111.844 540.812 113.797 540.812 115.281V158.797C540.812 159.656 540.969 160.672 541.594 161.531L625.031 113.094C624.563 112.156 623.859 111.453 623.156 110.984V110.984Z" fill="#659AD3"/>
<path d="M541.359 161.453C541.75 162.078 542.297 162.625 542.844 162.937L580.5 184.734C581.125 185.125 581.984 185.281 582.922 185.281C583.859 185.281 584.719 185.047 585.344 184.734L622.844 162.937C624.172 162.156 625.109 160.203 625.109 158.719V115.203C625.109 114.5 625.031 113.719 624.641 113.016L541.359 161.453V161.453Z" fill="#03599C"/>
<path d="M599.641 146.453C596.359 152.234 590.109 156.141 583 156.141C572.453 156.141 563.859 147.547 563.859 137C563.859 126.453 572.453 117.859 583 117.859C590.109 117.859 596.359 121.766 599.641 127.625L609.797 121.766C604.484 112.469 594.484 106.141 583 106.141C565.969 106.141 552.141 119.969 552.141 137C552.141 154.031 565.969 167.859 583 167.859C594.406 167.859 604.406 161.609 609.719 152.391L599.641 146.453V146.453Z" fill="white"/>
<path d="M836.156 60.9844L798.422 39.2656C797.797 38.875 796.938 38.7188 796 38.7188C795.062 38.7188 794.203 38.9531 793.578 39.2656L756.078 61.0625C754.75 61.8437 753.812 63.7969 753.812 65.2812V108.797C753.812 109.656 753.969 110.672 754.594 111.531L838.031 63.0937C837.563 62.1562 836.859 61.4531 836.156 60.9844V60.9844Z" fill="#D26383"/>
<path d="M754.359 111.453C754.75 112.078 755.297 112.625 755.844 112.937L793.5 134.734C794.125 135.125 794.984 135.281 795.922 135.281C796.859 135.281 797.719 135.047 798.344 134.734L835.844 112.937C837.172 112.156 838.109 110.203 838.109 108.719V65.2031C838.109 64.5 838.031 63.7187 837.641 63.0156L754.359 111.453V111.453Z" fill="#9C033A"/>
<path d="M812.641 96.4531C809.359 102.234 803.109 106.141 796 106.141C785.453 106.141 776.859 97.5469 776.859 87C776.859 76.4531 785.453 67.8594 796 67.8594C803.109 67.8594 809.359 71.7656 812.641 77.625L822.797 71.7656C817.484 62.4688 807.484 56.1406 796 56.1406C778.969 56.1406 765.141 69.9688 765.141 87C765.141 104.031 778.969 117.859 796 117.859C807.406 117.859 817.406 111.609 822.719 102.391L812.641 96.4531V96.4531Z" fill="white"/>
<path d="M810.141 85.2812H814.203V81.1406H817.641V85.2812H821.781V88.7187H817.641V92.7813H814.203V88.7187H810.141V85.2812V85.2812ZM824.594 85.2812H828.656V81.1406H832.094V85.2812H836.234V88.7187H832.094V92.7813H828.656V88.7187H824.594V85.2812V85.2812Z" fill="black"/>
<path d="M399.081 500.976C402.754 496.577 404.965 490.98 404.965 484.818C404.965 470.834 393.591 459.516 379.608 459.516H349.74C357.035 464.438 363.076 470.766 367.192 477.797H379.608C383.51 477.797 386.684 480.926 386.684 484.828C386.684 488.73 383.509 491.859 379.608 491.859H372.283C372.86 495.375 373.169 497.92 373.169 501.069C373.169 504.17 372.865 507.328 372.308 510.141H379.608C383.511 510.141 386.684 513.621 386.684 517.523C386.684 521.426 383.509 524.906 379.608 524.906H367.272C366.347 526.312 365.31 528.239 364.192 529.814C360.393 535.165 355.553 539.672 349.954 543.188H379.607C393.202 543.188 404.329 532.116 404.936 518.665C404.924 518.883 404.906 518.94 404.89 519.156C404.933 518.56 404.965 517.881 404.965 517.273C404.964 511.11 402.752 505.376 399.08 500.976H399.081Z" fill="#F19409"/>
<path d="M358.912 524.585L358.914 524.458C358.963 524.388 359.011 524.253 359.059 524.184C359.114 524.101 359.166 523.991 359.22 523.909C359.221 523.907 359.22 523.887 359.222 523.885C363.539 517.324 366.061 509.534 366.061 501.11C366.06 478.148 347.376 459.516 324.411 459.516H316.703V477.797H324.411C337.292 477.797 347.776 488.219 347.776 501.101C347.776 504.606 346.993 507.904 345.604 510.892C345.6 510.901 345.595 511.145 345.59 511.155C341.868 519.128 333.777 524.906 324.411 524.906H316.703V543.188H324.411C338.752 543.188 351.418 535.649 358.912 524.585Z" fill="#F19409"/>
<path d="M452.455 82.6078L409.395 39.55C406.916 37.0703 402.895 37.0703 400.413 39.55L391.473 48.4922L402.815 59.8344C405.452 58.9445 408.473 59.5414 410.574 61.6422C412.686 63.7562 413.279 66.8039 412.366 69.4492L423.297 80.382C425.941 79.4703 428.994 80.0594 431.105 82.175C434.058 85.1258 434.058 89.9094 431.105 92.8617C428.152 95.8148 423.37 95.8148 420.415 92.8617C418.195 90.6398 417.645 87.3781 418.77 84.6422L408.577 74.4477L408.575 101.277C409.295 101.632 409.974 102.107 410.574 102.705C413.527 105.655 413.527 110.438 410.574 113.395C407.622 116.345 402.837 116.345 399.888 113.395C396.936 110.438 396.694 105.656 399.645 102.705C400.374 101.976 401.094 101.425 401.875 101.056V73.9789C401.094 73.6102 400.375 73.0633 399.644 72.3297C397.409 70.0953 396.991 66.8141 398.138 64.0672L387.018 52.8852L357.523 82.4086C355.042 84.8906 355.058 88.9125 357.538 91.393L400.605 134.451C403.084 136.93 407.109 136.93 409.592 134.451L452.452 91.593C454.932 89.1117 454.934 85.0875 452.455 82.6078V82.6078Z" fill="#F34F29"/>
<path d="M320.873 357.966L313.056 270.298H398.944L391.119 357.952L355.948 367.702L320.873 357.966Z" fill="#E44D26"/>
<path d="M356 360.25L384.42 352.37L391.107 277.466H356V360.25Z" fill="#F16529"/>
<path d="M356 309.98H341.772L340.789 298.97H356V288.218H329.038L329.296 291.102L331.938 320.733H356V309.98ZM356 337.905L355.952 337.918L343.978 334.684L343.213 326.109H332.419L333.925 342.991L355.951 349.105L356 349.092V337.905Z" fill="#EBEBEB"/>
<path d="M355.963 309.98V320.733H369.202L367.955 334.677L355.963 337.914V349.101L378.005 342.991L378.167 341.175L380.694 312.868L380.955 309.98H378.059H355.963ZM355.963 288.218V298.97H381.934L382.15 296.554L382.641 291.102L382.898 288.218H355.963Z" fill="white"/>
<path d="M1082.37 534.412C1077 534.266 1072.91 534.765 1069.41 536.241C1068.41 536.66 1066.83 536.672 1066.66 537.918C1067.21 538.491 1067.3 539.347 1067.73 540.052C1068.57 541.403 1069.98 543.217 1071.24 544.167C1072.61 545.206 1074.03 546.316 1075.51 547.216C1078.13 548.815 1081.06 549.729 1083.58 551.331C1085.07 552.277 1086.55 553.466 1088 554.532C1088.72 555.059 1089.21 555.879 1090.14 556.209V556.058C1089.65 555.433 1089.52 554.575 1089.07 553.923L1087.09 551.941C1085.15 549.369 1082.69 547.109 1080.08 545.234C1077.99 543.737 1073.33 541.715 1072.46 539.289L1072.3 539.137C1073.78 538.97 1075.51 538.435 1076.88 538.069C1079.17 537.455 1081.22 537.613 1083.58 537.002L1086.79 536.087V535.478C1085.59 534.251 1084.74 532.626 1083.43 531.515C1080.02 528.609 1076.29 525.705 1072.46 523.283C1070.33 521.941 1067.7 521.068 1065.44 519.93C1064.69 519.546 1063.35 519.347 1062.85 518.709C1061.67 517.2 1061.02 515.286 1060.11 513.527C1058.2 509.842 1056.32 505.818 1054.62 501.941C1053.47 499.297 1052.71 496.691 1051.27 494.319C1044.35 482.938 1036.9 476.07 1025.35 469.319C1022.9 467.883 1019.94 467.316 1016.82 466.574C1015.14 466.473 1013.46 466.371 1011.79 466.269C1010.76 465.842 1009.7 464.59 1008.74 463.982C1004.91 461.566 995.107 456.312 992.276 463.22C990.487 467.58 994.948 471.834 996.543 474.044C997.663 475.592 999.097 477.33 999.897 479.073C1000.42 480.22 1000.51 481.369 1000.96 482.58C1002.07 485.566 1003.04 488.815 1004.47 491.573C1005.19 492.97 1005.99 494.441 1006.91 495.689C1007.47 496.455 1008.43 496.793 1008.59 497.976C1007.64 499.293 1007.59 501.338 1007.06 503.007C1004.68 510.519 1005.58 519.856 1009.04 525.416C1010.11 527.123 1012.61 530.784 1016.06 529.379C1019.07 528.152 1018.4 524.349 1019.26 520.995C1019.45 520.234 1019.33 519.675 1019.71 519.166V519.318L1022.46 524.805C1024.49 528.077 1028.09 531.495 1031.15 533.801C1032.73 534.997 1033.98 537.064 1036.03 537.764V537.611H1035.87C1035.48 536.993 1034.86 536.737 1034.35 536.24C1033.16 535.07 1031.83 533.616 1030.84 532.277C1028.07 528.505 1025.61 524.378 1023.37 520.082C1022.31 518.03 1021.38 515.767 1020.48 513.679C1020.13 512.874 1020.13 511.656 1019.41 511.24C1018.42 512.77 1016.97 514.007 1016.21 515.813C1014.99 518.701 1014.83 522.223 1014.38 525.874C1014.11 525.97 1014.23 525.904 1014.07 526.026C1011.95 525.514 1011.21 523.329 1010.42 521.453C1008.42 516.711 1008.05 509.077 1009.81 503.618C1010.26 502.205 1012.31 497.758 1011.48 496.452C1011.09 495.151 1009.78 494.398 1009.04 493.403C1008.14 492.173 1007.23 490.555 1006.6 489.134C1004.97 485.438 1004.21 481.287 1002.49 477.55C1001.67 475.763 1000.28 473.955 999.135 472.367C997.872 470.607 996.456 469.311 995.477 467.184C995.128 466.427 994.655 465.216 995.171 464.439C995.335 463.915 995.568 463.696 996.086 463.525C996.97 462.843 999.433 463.752 1000.35 464.134C1002.8 465.149 1004.84 466.116 1006.91 467.488C1007.9 468.148 1008.91 469.422 1010.11 469.775H1011.48C1013.63 470.268 1016.03 469.927 1018.04 470.537C1021.58 471.613 1024.76 473.289 1027.64 475.11C1036.43 480.659 1043.61 488.555 1048.52 497.977C1049.32 499.494 1049.66 500.941 1050.35 502.55C1051.76 505.795 1053.53 509.133 1054.93 512.306C1056.32 515.472 1057.68 518.666 1059.65 521.301C1060.69 522.685 1064.69 523.428 1066.51 524.198C1067.79 524.736 1069.88 525.298 1071.09 526.026C1073.39 527.418 1075.63 529.075 1077.79 530.6C1078.87 531.362 1082.2 533.034 1082.37 534.412V534.412ZM1014.23 476.333C1013.11 476.312 1012.32 476.455 1011.48 476.637V476.789H1011.63C1012.17 477.884 1013.11 478.591 1013.77 479.534C1014.27 480.602 1014.78 481.668 1015.29 482.734L1015.44 482.584C1016.39 481.917 1016.82 480.854 1016.81 479.229C1016.44 478.831 1016.38 478.333 1016.05 477.858C1015.62 477.224 1014.78 476.864 1014.23 476.333Z" fill="#00618A"/>
<path d="M859.521 336.083H856.396V354.833H859.521V336.083Z" fill="#78909C"/>
<path d="M867.333 343.896H848.583V347.021H867.333V343.896Z" fill="#78909C"/>
<path d="M897.021 373.583H893.896V392.333H897.021V373.583Z" fill="#5C6BC0"/>
<path d="M904.833 381.396H886.083V384.521H904.833V381.396Z" fill="#5C6BC0"/>
<path d="M822.021 373.583H818.896V392.333H822.021V373.583Z" fill="#78909C"/>
<path d="M829.833 381.396H811.083V384.521H829.833V381.396Z" fill="#78909C"/>
<path d="M859.521 411.083H856.396V429.833H859.521V411.083Z" fill="#5C6BC0"/>
<path d="M867.333 418.896H848.583V422.021H867.333V418.896Z" fill="#5C6BC0"/>
<path d="M875.667 379.833H840.25V386.083H875.667V379.833Z" fill="#E8762D"/>
<path d="M861.083 365.25H854.833V400.667H861.083V365.25Z" fill="#E8762D"/>
<path d="M836.083 346.5H831.917V375.667H836.083V346.5Z" fill="#FFA000"/>
<path d="M848.583 359H819.417V363.167H848.583V359Z" fill="#FFA000"/>
<path d="M884 346.5H879.833V375.667H884V346.5Z" fill="#607D8B"/>
<path d="M896.5 359H867.333V363.167H896.5V359Z" fill="#607D8B"/>
<path d="M836.083 390.25H831.917V419.417H836.083V390.25Z" fill="#C62828"/>
<path d="M848.583 402.75H819.417V406.917H848.583V402.75Z" fill="#C62828"/>
<path d="M884 390.25H879.833V419.417H884V390.25Z" fill="#0D47A1"/>
<path d="M896.5 402.75H867.333V406.917H896.5V402.75Z" fill="#0D47A1"/>
<g opacity="0.9">
<path fill-rule="evenodd" clip-rule="evenodd" d="M1040.92 383.62C1013.42 383.62 991.125 364.349 991.125 340.577C991.125 316.806 1013.42 297.535 1040.92 297.535C1068.43 297.535 1090.72 316.806 1090.72 340.577C1090.72 364.349 1068.43 383.62 1040.92 383.62ZM1048.55 314.363C1027.64 314.363 1010.7 327.537 1010.7 343.789C1010.7 360.04 1027.64 373.214 1048.55 373.214C1069.45 373.214 1084.88 364.207 1084.88 343.789C1084.88 323.376 1069.45 314.363 1048.55 314.363Z" fill="url(#paint0_linear)"/>
<path fill-rule="evenodd" clip-rule="evenodd" d="M1066.97 364.201C1066.97 364.201 1069.98 365.375 1071.73 366.519C1072.34 366.916 1073.39 367.707 1074.15 368.747C1074.89 369.765 1075.25 370.797 1075.25 370.797L1087.13 396.644L1067.93 396.655L1058.96 374.897C1058.96 374.897 1057.12 370.82 1055.99 369.638C1055.04 368.652 1054.64 368.301 1053.71 368.301C1053.06 368.301 1049.15 368.301 1049.15 368.301L1049.15 396.639L1032.16 396.648V324.262H1066.28C1066.28 324.262 1081.81 324.623 1081.81 343.702C1081.81 362.781 1066.97 364.201 1066.97 364.201ZM1059.58 339.963L1049.29 339.955L1049.29 352.263L1059.58 352.259C1059.58 352.259 1064.34 352.24 1064.34 345.998C1064.34 339.63 1059.58 339.963 1059.58 339.963Z" fill="url(#paint1_linear)"/>
</g>
<path d="M724.75 551.188C724.119 551.188 723.537 550.803 723.298 550.2C720.189 542.355 714.402 527.75 710.102 527.75C708.092 527.75 706.105 529.038 706.086 529.05C705.545 529.413 704.834 529.4 704.306 529.017L684.775 514.955C684.316 514.623 684.07 514.067 684.136 513.503C684.202 512.939 684.569 512.456 685.094 512.241L710.822 501.681C711.97 499.986 716.428 493.773 721.259 491.916C721.989 491.634 722.598 491.406 723.117 491.212C725.731 490.233 725.731 490.233 727.731 488.353L728.173 487.938C730.891 485.391 736.075 477.386 737.678 474.783C737.862 474.481 738.059 474.15 738.267 473.8C740.013 470.85 742.402 466.812 746.039 466.812C750.211 466.812 752.427 471.111 754.892 476.733C757.158 481.9 763.209 499.011 765.684 506.353C771.638 524.02 777.655 536.314 777.716 536.436C778.02 537.056 777.881 537.805 777.372 538.275C776.864 538.745 776.108 538.825 775.511 538.467C775.384 538.392 772.358 536.558 767.395 531.589C763.714 527.905 760.714 526.188 757.953 526.188C753.095 526.188 749.664 530.05 745.319 534.942L745.059 535.234C744.544 535.814 743.977 536.48 743.358 537.203C739.045 542.252 732.53 549.883 725.014 551.167C724.925 551.181 724.836 551.188 724.75 551.188ZM710.102 524.625C715.872 524.625 720.436 534.581 725.708 547.805C731.655 546.094 737.219 539.578 740.981 535.173C741.614 534.433 742.197 533.75 742.723 533.158L742.983 532.866C747.656 527.605 751.692 523.062 757.953 523.062C762.688 523.062 766.667 526.439 769.606 529.38C770.539 530.314 771.398 531.13 772.178 531.838C769.825 526.472 766.258 517.839 762.723 507.35C760.169 499.769 754.169 482.863 752.031 477.986C749.741 472.767 748.108 469.938 746.039 469.938C744.183 469.938 742.162 473.352 740.955 475.392C740.737 475.759 740.531 476.106 740.338 476.42C740.273 476.525 733.902 486.852 730.311 490.219L729.872 490.631C727.486 492.875 727.328 492.973 724.216 494.139C723.705 494.331 723.103 494.556 722.381 494.834C718.608 496.286 714.456 501.791 713.175 503.789C713.002 504.059 712.75 504.27 712.453 504.392L688.884 514.064L705.32 525.897C706.377 525.359 708.172 524.625 710.102 524.625Z" fill="url(#paint2_linear)"/>
<path d="M705.884 529.164L704.552 526.338C704.648 526.292 714.227 521.658 721.68 510.106C728.759 499.133 732.256 490.564 734.134 485.961C734.613 484.789 734.978 483.898 735.258 483.32C735.945 481.897 736.609 480.184 737.313 478.37C739.516 472.688 741.795 466.812 746.039 466.812V469.938C743.934 469.938 741.791 475.464 740.227 479.5C739.5 481.373 738.813 483.144 738.072 484.68C737.811 485.219 737.475 486.05 737.028 487.144C735.111 491.841 731.544 500.583 724.306 511.802C716.342 524.144 706.308 528.964 705.884 529.164Z" fill="url(#paint3_linear)"/>
<path d="M721.859 512.398L710.922 504.195L712.797 501.695L723.734 509.898L721.859 512.398Z" fill="url(#paint4_linear)"/>
<path d="M740.645 530.791C745.519 525.305 750.127 520.119 757.563 519.942C757.563 519.942 752.289 496.695 747.797 477.555C746.884 473.666 746.52 473.062 746.141 473.062C745.883 473.062 745.577 473.633 745.334 474.947C744.036 481.964 737.898 508.097 732.953 520.719C731.064 525.541 727.686 528.377 724.75 529.703C723.406 530.311 721.469 530.875 721.469 530.875C723.502 534.436 725.433 538.813 727.42 543.691C731.617 541.327 735.722 536.519 738.605 533.144C739.252 532.386 739.848 531.689 740.389 531.08L740.645 530.791Z" fill="url(#paint5_linear)"/>
<path d="M919.333 205.833L932.833 198L946.166 205.833L932.833 213.5L919.333 206V205.833ZM878.833 182.667L932.833 152L973 174.833L959.667 198L932.834 182.667L892.334 205.667L878.833 182.667Z" fill="#F6BD3A"/>
<path d="M919.333 236.5V221.167L932.666 213.5L946.166 205.833V221.166L932.833 228.833V244.166L919.333 252V236.5ZM919.333 205.833L905.833 198.166L892.333 205.666V190.333L932.833 167.333V198L919.333 205.833ZM959.5 190.333V182.666L973 174.833L973.167 190.166L959.667 197.998L959.5 190.333Z" fill="#EB8C23"/>
<path d="M905.833 243.833V198.167L919.166 190.667L919.333 205.834L932.833 213.334V228.834L919.333 221.667V252L905.833 243.833ZM885.5 201.667L878.833 197.667V182.667L892.333 190.334V205.667L885.5 201.667ZM932.833 182.667V167.333L959.5 182.666L959.667 197.998L932.834 182.666L932.833 182.667Z" fill="#E35A2B"/>
<path d="M164.589 448.001L103.001 497.737L122.063 513.132L202.714 448.001H164.589Z" fill="#47C5FB"/>
<path d="M164.159 493.866L131.183 520.497L150.317 536.18L169.345 520.814L202.714 493.866H164.159Z" fill="#47C5FB"/>
<path d="M150.318 536.18L164.803 547.878H202.714L169.345 520.814L150.318 536.18Z" fill="#00569E"/>
<path d="M130.969 520.67L150.032 505.275L169.345 520.814L150.318 536.18L130.969 520.67Z" fill="#00B5F8"/>
<path d="M150.318 536.18L166.161 531.934L167.735 522.114L150.318 536.18Z" fill="url(#paint6_linear)" fill-opacity="0.8"/>
<g opacity="0.9">
<path d="M997 42H1087V132H997V42Z" fill="#D00000"/>
<path d="M1030.46 111.47V94.7613L1037.25 87.9979L1054.27 113.15L1062.06 113.211L1063.5 110.273L1043.7 81.5411L1061.93 63.0043L1060.92 60.0652H1053.14L1030.46 82.7371V61.796L1028.81 60.0652H1023.18L1021.52 61.7957V111.397L1023.26 113.171L1028.69 113.15L1030.46 111.47Z" fill="white"/>
</g>
<defs>
<linearGradient id="paint0_linear" x1="991.125" y1="297.535" x2="1076.3" y2="396.084" gradientUnits="userSpaceOnUse">
<stop stop-color="#CBCED0"/>
<stop offset="1" stop-color="#84838B"/>
</linearGradient>
<linearGradient id="paint1_linear" x1="1032.16" y1="324.262" x2="1101.89" y2="377.215" gradientUnits="userSpaceOnUse">
<stop stop-color="#276DC3"/>
<stop offset="1" stop-color="#165CAA"/>
</linearGradient>
<linearGradient id="paint2_linear" x1="731" y1="467.073" x2="731" y2="551.188" gradientUnits="userSpaceOnUse">
<stop stop-color="#1A6DFF"/>
<stop offset="1" stop-color="#C822FF"/>
</linearGradient>
<linearGradient id="paint3_linear" x1="725.295" y1="467.073" x2="725.295" y2="551.188" gradientUnits="userSpaceOnUse">
<stop stop-color="#1A6DFF"/>
<stop offset="1" stop-color="#C822FF"/>
</linearGradient>
<linearGradient id="paint4_linear" x1="717.328" y1="467.073" x2="717.328" y2="551.187" gradientUnits="userSpaceOnUse">
<stop stop-color="#1A6DFF"/>
<stop offset="1" stop-color="#C822FF"/>
</linearGradient>
<linearGradient id="paint5_linear" x1="739.516" y1="465.931" x2="739.516" y2="551.92" gradientUnits="userSpaceOnUse">
<stop stop-color="#6DC7FF"/>
<stop offset="1" stop-color="#E6ABFF"/>
</linearGradient>
<linearGradient id="paint6_linear" x1="151.006" y1="525.911" x2="162.813" y2="531.18" gradientUnits="userSpaceOnUse">
<stop/>
<stop offset="1" stop-opacity="0"/>
</linearGradient>
<clipPath id="clip0">
<rect width="100" height="100" fill="white" transform="translate(692 203)"/>
</clipPath>
</defs>
</svg>
