<?xml version="1.0" standalone="no"?>
<!DOCTYPE svg PUBLIC "-//W3C//DTD SVG 20010904//EN"
 "http://www.w3.org/TR/2001/REC-SVG-20010904/DTD/svg10.dtd">
<svg version="1.0" xmlns="http://www.w3.org/2000/svg"
 width="100.000000pt" height="100.000000pt" viewBox="0 0 100.000000 100.000000"
 preserveAspectRatio="xMidYMid meet">
<metadata>
Created by potrace 1.10, written by Peter Selinger 2001-2011
</metadata>
<g transform="translate(0.000000,100.000000) scale(0.100000,-0.100000)"
fill="#000000" stroke="none">
<path d="M205 856 c-14 -14 -25 -29 -25 -33 0 -5 -13 -14 -30 -20 -35 -13 -60
-57 -42 -75 8 -8 19 -3 41 20 16 18 35 32 43 32 7 0 18 10 23 22 6 13 21 28
35 35 31 15 32 37 3 41 -14 2 -32 -6 -48 -22z"/>
<path d="M671 826 c-87 -48 -50 -186 49 -186 51 0 100 49 100 99 0 75 -83 124
-149 87z m89 -46 c11 -11 20 -29 20 -40 0 -11 -9 -29 -20 -40 -11 -11 -29 -20
-40 -20 -11 0 -29 9 -40 20 -11 11 -20 29 -20 40 0 11 9 29 20 40 11 11 29 20
40 20 11 0 29 -9 40 -20z"/>
<path d="M240 675 c-6 -15 -10 -33 -10 -41 0 -8 -9 -14 -20 -14 -27 0 -28 -4
-39 -144 -9 -103 -13 -121 -33 -140 -15 -13 -32 -53 -47 -108 -23 -84 -25 -87
-55 -90 -49 -5 -40 -32 11 -36 49 -4 50 -3 83 116 17 57 31 87 46 97 19 12 23
26 29 102 10 139 14 160 35 166 12 3 21 18 25 41 l7 36 54 0 53 0 3 -147 c3
-124 5 -148 18 -148 11 0 16 14 18 53 3 48 5 51 23 42 16 -9 19 -22 20 -98 l1
-87 52 -85 52 -85 215 0 c184 0 214 2 214 15 0 8 -10 16 -22 18 -13 2 -32 19
-45 40 -19 31 -24 55 -28 147 l-5 110 -37 3 c-32 3 -37 7 -40 30 -3 24 -7 27
-38 27 -32 0 -36 -3 -44 -37 -7 -26 -15 -38 -30 -40 -18 -3 -21 -11 -24 -58
-3 -71 -13 -96 -21 -55 -4 17 -13 30 -21 30 -12 0 -16 -19 -18 -97 -3 -122
-14 -125 -76 -23 l-45 75 -3 152 c-3 128 -5 153 -18 153 -11 0 -16 -14 -18
-53 -3 -48 -5 -51 -22 -42 -16 9 -20 24 -22 103 l-3 92 -83 3 c-81 3 -82 2
-92 -23z m560 -350 c10 0 16 12 18 38 3 29 7 37 23 37 17 0 19 -8 19 -92 0
-75 4 -99 20 -126 11 -18 20 -35 20 -37 0 -3 -54 -5 -120 -5 l-120 0 0 44 c0
38 4 48 30 66 27 19 30 27 30 75 0 44 3 54 19 58 13 3 22 18 28 43 8 37 8 35
13 -31 4 -53 9 -70 20 -70z"/>
<path d="M265 467 c-3 -7 -5 -47 -3 -88 2 -58 6 -74 18 -74 12 0 15 16 15 84
0 59 -4 86 -12 88 -7 3 -15 -2 -18 -10z"/>
</g>
</svg>
