<?xml version="1.0" standalone="no"?>
<!DOCTYPE svg PUBLIC "-//W3C//DTD SVG 20010904//EN"
 "http://www.w3.org/TR/2001/REC-SVG-20010904/DTD/svg10.dtd">
<svg version="1.0" xmlns="http://www.w3.org/2000/svg"
 width="100.000000pt" height="100.000000pt" viewBox="0 0 100.000000 100.000000"
 preserveAspectRatio="xMidYMid meet">
<metadata>
Created by potrace 1.10, written by Peter Selinger 2001-2011
</metadata>
<g transform="translate(0.000000,100.000000) scale(0.050000,-0.050000)"
fill="#000000" stroke="none">
<path d="M183 1730 c-45 -20 -64 -40 -59 -65 7 -36 13 -36 185 -11 55 8 99 0
145 -25 72 -39 117 -21 95 36 -32 83 -238 120 -366 65z"/>
<path d="M1243 1723 c-198 -198 -322 -1229 -190 -1574 10 -24 -33 -29 -267
-29 l-278 0 -66 109 c-252 416 -242 807 29 1108 95 105 106 132 61 149 -40 16
-99 -32 -199 -162 -270 -352 -317 -681 -163 -1159 14 -42 9 -45 -68 -45 -69 0
-82 -6 -82 -40 0 -36 13 -40 138 -40 159 0 174 15 121 121 -19 38 -49 119 -65
180 -34 120 -60 314 -34 249 8 -22 39 -103 68 -180 29 -77 87 -189 128 -250
l74 -110 664 -5 664 -6 43 96 c142 317 191 847 111 1225 -70 332 -154 331
-339 -3 l-37 -67 -55 160 c-82 238 -95 266 -139 289 -55 29 -76 27 -119 -16z
m166 -295 c168 -495 173 -1308 9 -1308 l-58 0 0 192 c0 175 3 191 35 178 19
-8 52 -19 73 -25 59 -17 22 26 -48 55 l-60 25 0 177 c0 187 5 198 64 145 69
-63 60 -9 -12 67 -170 180 -238 396 -175 560 20 53 43 113 50 134 22 61 48 17
122 -200z m442 -180 c76 -502 -37 -1124 -204 -1124 -69 0 -71 2 -60 63 49 276
59 490 36 725 -27 271 -29 261 111 503 67 115 76 102 117 -167z m-615 -218
c34 -41 38 -149 27 -746 l-3 -167 -55 7 c-54 6 -56 11 -92 232 -43 259 -44
255 54 214 113 -47 107 43 -7 108 -99 55 -100 75 -16 482 l23 110 18 -100 c10
-55 33 -118 51 -140z"/>
<path d="M1140 883 c0 -26 79 -91 93 -76 8 7 -3 31 -23 53 -38 42 -70 52 -70
23z"/>
<path d="M651 1628 c-49 -48 -6 -90 69 -68 77 22 138 5 205 -57 59 -55 105
-40 92 29 -20 103 -289 174 -366 96z"/>
<path d="M240 1534 c-105 -55 -184 -161 -176 -233 9 -79 68 -75 95 5 28 85 76
130 175 164 51 18 76 38 76 63 0 55 -68 55 -170 1z"/>
<path d="M633 1507 c-28 -29 -10 -66 47 -100 95 -56 148 -186 132 -324 -25
-219 -25 -213 18 -213 70 0 112 240 69 396 -36 127 -216 291 -266 241z"/>
<path d="M1860 82 c0 -48 50 -68 80 -32 30 36 9 70 -41 70 -25 0 -39 -14 -39
-38z"/>
</g>
</svg>
