<?xml version="1.0" standalone="no"?>
<!DOCTYPE svg PUBLIC "-//W3C//DTD SVG 20010904//EN"
 "http://www.w3.org/TR/2001/REC-SVG-20010904/DTD/svg10.dtd">
<svg version="1.0" xmlns="http://www.w3.org/2000/svg"
 width="300.000000pt" height="300.000000pt" viewBox="0 0 300.000000 300.000000"
 preserveAspectRatio="xMidYMid meet">
<metadata>
Created by potrace 1.10, written by Peter Selinger 2001-2011
</metadata>
<g transform="translate(0.000000,300.000000) scale(0.100000,-0.100000)"
fill="#000000" stroke="none">
<path d="M748 2603 c-14 -2 -32 -11 -38 -19 -7 -8 -18 -14 -24 -14 -19 0 -82
-71 -105 -117 -21 -42 -21 -47 -21 -963 0 -902 0 -922 20 -960 27 -53 74 -106
113 -126 80 -42 117 -43 934 -44 469 0 784 4 788 9 4 7 8 1587 5 2224 0 16
-45 17 -822 16 -453 -1 -835 -4 -850 -6z m1490 -925 c2 -595 0 -748 -10 -748
-7 0 -345 -1 -751 -2 l-737 -3 0 718 c0 713 0 719 21 745 13 17 34 29 57 33
20 3 348 6 727 5 l690 -1 3 -747z m-3 -1033 l0 -90 -723 0 -722 0 -25 30 c-34
42 -33 89 4 126 l30 29 718 -2 718 -3 0 -90z"/>
<path d="M1033 2143 c-9 -3 -13 -31 -13 -88 0 -66 3 -84 16 -89 9 -3 237 -6
508 -6 369 0 495 3 504 12 15 15 16 132 2 159 -10 18 -26 19 -508 18 -273 0
-503 -3 -509 -6z"/>
</g>
</svg>
