<?xml version="1.0" standalone="no"?>
<!DOCTYPE svg PUBLIC "-//W3C//DTD SVG 20010904//EN"
 "http://www.w3.org/TR/2001/REC-SVG-20010904/DTD/svg10.dtd">
<svg version="1.0" xmlns="http://www.w3.org/2000/svg"
 width="100.000000pt" height="100.000000pt" viewBox="0 0 100.000000 100.000000"
 preserveAspectRatio="xMidYMid meet">
<metadata>
Created by potrace 1.10, written by Peter Selinger 2001-2011
</metadata>
<g transform="translate(0.000000,100.000000) scale(0.100000,-0.100000)"
fill="#000000" stroke="none">
<path d="M432 895 c-16 -14 -33 -36 -36 -50 -6 -23 -11 -25 -60 -25 -46 0 -54
3 -59 20 -5 19 -12 21 -89 18 -74 -3 -83 -5 -86 -23 -1 -11 -16 -27 -32 -37
-60 -34 -61 -40 -61 -328 0 -289 1 -292 64 -330 30 -19 53 -20 427 -20 534 0
491 -31 491 350 0 223 -3 266 -16 287 -25 37 -75 63 -122 63 -37 0 -43 3 -49
25 -3 14 -20 36 -36 50 -28 24 -35 25 -168 25 -133 0 -140 -1 -168 -25z m314
-37 c11 -13 25 -35 32 -50 10 -25 17 -28 57 -28 56 0 97 -20 113 -55 8 -18 12
-99 12 -255 0 -156 -4 -237 -12 -255 -24 -54 -35 -55 -447 -55 -409 0 -421 1
-447 51 -19 37 -21 474 -2 514 7 15 29 35 50 46 21 11 38 26 38 34 0 11 12 15
49 15 40 0 50 -3 54 -20 5 -18 14 -20 86 -20 79 0 82 1 93 28 7 15 21 37 32
50 18 21 27 22 146 22 119 0 128 -1 146 -22z"/>
<path d="M530 731 c-46 -15 -85 -39 -116 -73 -54 -57 -69 -95 -69 -178 0 -83
15 -121 69 -178 53 -57 101 -77 186 -77 57 0 84 5 115 22 47 25 95 74 121 123
26 49 26 171 0 220 -26 49 -74 98 -121 122 -43 22 -144 33 -185 19z m186 -67
c68 -42 107 -117 102 -196 -12 -168 -191 -261 -334 -172 -68 42 -107 117 -102
196 12 168 191 261 334 172z"/>
<path d="M110 705 c-26 -32 13 -81 48 -59 34 22 22 74 -18 74 -10 0 -23 -7
-30 -15z"/>
</g>
</svg>
