<?xml version="1.0" standalone="no"?>
<!DOCTYPE svg PUBLIC "-//W3C//DTD SVG 20010904//EN"
 "http://www.w3.org/TR/2001/REC-SVG-20010904/DTD/svg10.dtd">
<svg version="1.0" xmlns="http://www.w3.org/2000/svg"
 width="100.000000pt" height="100.000000pt" viewBox="0 0 100.000000 100.000000"
 preserveAspectRatio="xMidYMid meet">
<metadata>
Created by potrace 1.10, written by Peter Selinger 2001-2011
</metadata>
<g transform="translate(0.000000,100.000000) scale(0.100000,-0.100000)"
fill="#000000" stroke="none">
<path d="M139 615 c-71 -147 -131 -277 -132 -287 -2 -16 12 -24 73 -44 41 -13
80 -24 86 -24 13 0 51 77 75 150 18 58 20 56 39 -25 6 -27 25 -82 41 -120 l29
-71 115 -37 115 -38 202 71 c112 39 207 75 211 79 9 9 -228 597 -244 607 -5 3
-26 0 -46 -6 -91 -27 -308 -23 -411 6 -21 6 -31 -11 -153 -261z m701 -49 c61
-148 109 -271 106 -273 -3 -3 -84 -33 -180 -67 l-174 -62 -113 270 c-61 149
-124 299 -140 333 l-27 62 31 -7 c46 -10 316 -6 352 5 17 6 31 9 32 9 1 -1 52
-123 113 -270z m-435 -56 c64 -157 124 -298 132 -314 12 -22 12 -27 1 -23 -7
3 -46 16 -86 29 l-72 23 -29 75 c-16 41 -39 113 -51 160 -12 47 -25 88 -28 92
-14 14 -30 -9 -52 -77 -13 -38 -33 -93 -45 -121 l-23 -51 -51 15 c-28 9 -50
19 -49 23 20 53 225 465 229 460 3 -3 59 -134 124 -291z"/>
</g>
</svg>
