<?xml version="1.0" standalone="no"?>
<!DOCTYPE svg PUBLIC "-//W3C//DTD SVG 20010904//EN"
 "http://www.w3.org/TR/2001/REC-SVG-20010904/DTD/svg10.dtd">
<svg version="1.0" xmlns="http://www.w3.org/2000/svg"
 width="100.000000pt" height="100.000000pt" viewBox="0 0 100.000000 100.000000"
 preserveAspectRatio="xMidYMid meet">
<metadata>
Created by potrace 1.10, written by Peter Selinger 2001-2011
</metadata>
<g transform="translate(0.000000,100.000000) scale(0.100000,-0.100000)"
fill="#000000" stroke="none">
<path d="M415 941 c-22 -10 -51 -30 -64 -44 -21 -23 -29 -25 -72 -20 -61 7
-122 -15 -169 -60 -89 -87 -93 -211 -8 -303 22 -24 48 -46 59 -49 17 -6 19
-20 21 -213 l3 -207 315 0 315 0 3 207 c2 193 4 207 21 213 11 3 37 25 59 49
85 92 81 216 -8 303 -47 45 -108 67 -169 60 -43 -5 -51 -3 -72 20 -34 36 -96
63 -149 63 -25 0 -63 -9 -85 -19z m161 -40 c22 -10 50 -30 61 -45 19 -24 25
-26 79 -20 49 5 66 2 104 -18 131 -67 132 -245 2 -316 l-42 -23 0 -120 0 -119
-280 0 -280 0 0 119 0 120 -42 23 c-130 71 -129 249 2 316 38 20 55 23 104 18
54 -6 60 -4 79 20 26 33 91 64 137 64 19 0 53 -9 76 -19z m204 -761 l0 -60
-280 0 -280 0 0 60 0 60 280 0 280 0 0 -60z"/>
<path d="M344 447 c-10 -28 0 -82 16 -82 11 0 15 12 15 44 0 44 -19 68 -31 38z"/>
<path d="M484 447 c-11 -29 0 -102 16 -102 19 0 22 106 3 112 -7 3 -16 -2 -19
-10z"/>
<path d="M624 447 c-10 -28 0 -82 16 -82 11 0 15 12 15 44 0 44 -19 68 -31 38z"/>
</g>
</svg>
