<?xml version="1.0" standalone="no"?>
<!DOCTYPE svg PUBLIC "-//W3C//DTD SVG 20010904//EN"
 "http://www.w3.org/TR/2001/REC-SVG-20010904/DTD/svg10.dtd">
<svg version="1.0" xmlns="http://www.w3.org/2000/svg"
 width="100.000000pt" height="100.000000pt" viewBox="0 0 100.000000 100.000000"
 preserveAspectRatio="xMidYMid meet">
<metadata>
Created by potrace 1.16, written by Peter Selinger 2001-2019
</metadata>
<g transform="translate(0.000000,100.000000) scale(0.100000,-0.100000)"
fill="#000000" stroke="none">
<path d="M455 793 c-16 -8 -45 -29 -62 -46 -30 -28 -38 -30 -92 -28 -38 1 -70
-3 -89 -13 -46 -24 -91 -82 -98 -126 -5 -33 -13 -44 -44 -61 -50 -28 -70 -66
-70 -131 0 -105 51 -148 175 -148 62 0 82 -4 102 -20 25 -19 41 -20 348 -20
l323 0 26 31 c21 25 26 41 26 88 0 63 -15 93 -59 116 -20 10 -31 25 -35 48 -8
42 -44 83 -89 102 -26 11 -35 22 -44 57 -15 55 -75 125 -127 149 -51 23 -149
24 -191 2z m175 -53 c66 -34 121 -139 77 -148 -9 -2 -31 8 -48 22 -60 51 -165
57 -232 12 -17 -12 -44 -45 -58 -75 -21 -41 -36 -57 -66 -71 -64 -28 -85 -63
-81 -135 l3 -60 -64 5 c-78 7 -111 37 -111 101 0 44 21 70 78 101 23 12 32 24
32 43 0 43 27 93 62 115 28 18 43 20 100 16 64 -6 68 -5 84 19 45 68 149 94
224 55z m-43 -141 c15 -5 42 -24 59 -40 30 -29 33 -30 72 -18 69 20 130 -17
141 -88 5 -30 13 -41 43 -57 45 -23 62 -62 46 -106 -5 -17 -18 -35 -28 -40
-22 -12 -228 -13 -451 -3 -142 6 -155 8 -176 29 -17 17 -23 34 -23 66 0 56 9
67 71 98 42 20 54 32 64 63 28 85 105 125 182 96z"/>
</g>
</svg>
