<?xml version="1.0" standalone="no"?>
<!DOCTYPE svg PUBLIC "-//W3C//DTD SVG 20010904//EN"
 "http://www.w3.org/TR/2001/REC-SVG-20010904/DTD/svg10.dtd">
<svg version="1.0" xmlns="http://www.w3.org/2000/svg"
 width="300.000000pt" height="300.000000pt" viewBox="0 0 300.000000 300.000000"
 preserveAspectRatio="xMidYMid meet">
<metadata>
Created by potrace 1.10, written by Peter Selinger 2001-2011
</metadata>
<g transform="translate(0.000000,300.000000) scale(0.100000,-0.100000)"
fill="#000000" stroke="none">
<path d="M95 2793 c-42 -22 -63 -42 -80 -76 -13 -26 -15 -193 -15 -1289 l0
-1258 1500 0 1500 0 0 1265 c0 1127 -2 1265 -15 1265 -9 0 -19 10 -24 23 -10
27 -35 49 -78 71 -29 15 -158 16 -1395 16 -1224 -1 -1366 -2 -1393 -17z m2754
-127 c20 -21 22 -32 19 -117 l-3 -94 -1375 0 -1375 0 -3 94 c-3 85 -1 96 19
117 l22 24 1337 0 1337 0 22 -24z m16 -1356 l0 -1015 -1375 0 -1375 0 -3 1005
c-1 553 0 1011 3 1018 3 10 284 12 1377 10 l1373 -3 0 -1015z"/>
<path d="M1687 2072 c-10 -10 -17 -23 -17 -29 0 -6 -6 -24 -14 -40 -17 -36
-39 -86 -61 -143 -10 -25 -24 -60 -31 -77 -8 -18 -20 -48 -28 -65 -7 -18 -21
-53 -31 -78 -10 -25 -24 -60 -31 -77 -8 -18 -20 -48 -28 -65 -7 -18 -21 -53
-31 -78 -10 -25 -24 -60 -31 -77 -8 -18 -20 -48 -28 -65 -7 -18 -21 -53 -31
-78 -10 -25 -24 -60 -31 -77 -8 -18 -20 -48 -28 -65 -7 -18 -21 -53 -31 -78
-10 -25 -24 -61 -33 -80 -8 -19 -20 -48 -27 -65 -7 -16 -20 -47 -29 -68 -9
-21 -16 -48 -16 -61 0 -29 29 -56 62 -56 25 0 58 27 58 47 0 6 6 24 14 40 17
36 39 86 61 143 10 25 24 60 31 77 8 18 20 48 28 65 7 18 21 53 31 78 10 25
24 60 31 78 8 17 20 47 28 65 7 17 21 52 31 77 10 25 24 60 31 78 8 17 20 47
28 65 7 17 21 52 31 77 10 25 24 61 33 80 21 50 37 89 57 140 10 25 24 60 31
78 8 17 20 47 28 65 7 17 21 49 30 70 9 21 16 48 16 61 0 49 -70 75 -103 38z"/>
<path d="M915 1721 c-6 -5 -32 -21 -60 -36 -27 -14 -63 -35 -80 -46 -16 -10
-37 -22 -45 -26 -17 -8 -158 -89 -180 -103 -8 -6 -24 -14 -35 -19 -11 -5 -27
-21 -34 -35 -12 -22 -12 -30 0 -52 7 -14 23 -30 34 -35 11 -5 27 -13 35 -19
22 -14 163 -95 180 -103 8 -4 29 -16 45 -27 17 -11 37 -23 45 -27 8 -4 37 -19
63 -35 55 -32 74 -34 105 -12 39 27 25 84 -28 108 -8 3 -28 15 -45 26 -16 11
-39 24 -50 30 -11 6 -47 26 -80 45 -33 19 -70 39 -82 45 -13 5 -23 18 -23 30
0 12 10 25 23 30 12 6 49 26 82 45 33 19 69 39 80 45 11 6 34 19 50 30 17 11
37 23 45 26 51 23 70 93 31 114 -24 12 -64 13 -76 1z"/>
<path d="M1987 1712 c-40 -44 -16 -86 73 -128 8 -4 47 -26 85 -49 39 -22 77
-44 85 -48 42 -20 75 -45 75 -57 0 -12 -33 -37 -75 -57 -8 -4 -46 -26 -85 -48
-38 -23 -77 -45 -85 -49 -67 -32 -90 -54 -90 -87 0 -30 31 -59 62 -59 9 0 39
13 65 28 26 16 55 31 63 35 8 4 29 16 45 27 17 10 53 31 80 45 28 14 64 34 80
45 17 11 39 25 50 30 61 33 72 42 85 65 11 21 11 29 0 50 -13 23 -24 32 -85
65 -11 5 -33 19 -50 30 -16 11 -52 31 -80 45 -27 14 -63 35 -80 45 -16 11 -37
23 -45 27 -8 4 -37 19 -63 35 -56 33 -87 35 -110 10z"/>
</g>
</svg>
