<?xml version="1.0" standalone="no"?>
<!DOCTYPE svg PUBLIC "-//W3C//DTD SVG 20010904//EN"
 "http://www.w3.org/TR/2001/REC-SVG-20010904/DTD/svg10.dtd">
<svg version="1.0" xmlns="http://www.w3.org/2000/svg"
 width="100.000000pt" height="100.000000pt" viewBox="0 0 100.000000 100.000000"
 preserveAspectRatio="xMidYMid meet">
<metadata>
Created by potrace 1.10, written by Peter Selinger 2001-2011
</metadata>
<g transform="translate(0.000000,100.000000) scale(0.100000,-0.100000)"
fill="#000000" stroke="none">
<path d="M267 922 c-10 -10 -17 -26 -17 -36 0 -9 -10 -20 -22 -25 -38 -15 -58
-46 -65 -100 -5 -48 -4 -53 16 -58 26 -7 23 8 66 -333 28 -222 40 -288 53
-297 23 -18 381 -18 404 -1 13 10 25 76 53 298 43 341 40 326 66 333 20 5 21
10 16 58 -7 54 -27 85 -64 100 -13 5 -23 17 -23 27 0 10 -8 26 -18 35 -16 15
-48 17 -234 17 -195 0 -216 -2 -231 -18z m443 -42 c11 -20 8 -20 -209 -20
-214 0 -219 0 -214 20 5 19 14 20 209 20 193 0 204 -1 214 -20z m80 -86 c22
-57 35 -54 -290 -54 -325 0 -312 -3 -290 54 l10 26 280 0 280 0 10 -26z m-34
-111 c-3 -10 -8 -51 -12 -90 l-7 -73 -43 0 c-39 0 -49 5 -87 44 -71 75 -143
75 -214 0 -38 -39 -48 -44 -87 -44 l-43 0 -7 73 c-4 39 -9 80 -12 90 -5 16 12
17 256 17 244 0 261 -1 256 -17z m-200 -122 c17 -10 36 -33 44 -50 12 -30 15
-31 72 -31 58 0 60 -1 54 -22 -3 -13 -6 -35 -6 -50 0 -27 -2 -28 -54 -28 -51
0 -54 -2 -66 -31 -15 -36 -63 -69 -100 -69 -37 0 -85 33 -100 69 -12 29 -15
31 -66 31 -52 0 -54 1 -54 28 0 15 -3 37 -6 50 -6 21 -4 22 50 22 54 0 58 2
77 35 37 63 98 81 155 46z m-177 -252 c67 -90 175 -90 242 0 17 24 31 31 56
31 38 0 37 7 18 -125 -8 -55 -15 -103 -15 -107 0 -5 -81 -8 -180 -8 -99 0
-180 3 -180 8 0 4 -7 52 -15 107 -19 132 -20 125 18 125 25 0 39 -7 56 -31z"/>
<path d="M467 529 c-46 -27 -60 -112 -27 -166 34 -57 94 -53 125 7 45 88 -24
202 -98 159z m57 -51 c19 -27 20 -58 4 -93 -14 -31 -32 -32 -52 -3 -19 27 -20
58 -4 93 14 31 32 32 52 3z"/>
</g>
</svg>
