<?xml version="1.0" standalone="no"?>
<!DOCTYPE svg PUBLIC "-//W3C//DTD SVG 20010904//EN"
 "http://www.w3.org/TR/2001/REC-SVG-20010904/DTD/svg10.dtd">
<svg version="1.0" xmlns="http://www.w3.org/2000/svg"
 width="100.000000pt" height="100.000000pt" viewBox="0 0 100.000000 100.000000"
 preserveAspectRatio="xMidYMid meet">
<metadata>
Created by potrace 1.10, written by Peter Selinger 2001-2011
</metadata>
<g transform="translate(0.000000,100.000000) scale(0.100000,-0.100000)"
fill="#000000" stroke="none">
<path d="M455 851 c-45 -20 -70 -60 -70 -112 0 -42 5 -53 33 -81 28 -28 39
-33 82 -33 43 0 54 5 82 33 28 28 33 39 33 82 0 42 -5 54 -31 81 -33 33 -92
46 -129 30z m100 -56 c50 -49 15 -135 -55 -135 -41 0 -80 39 -80 80 0 41 39
80 80 80 19 0 40 -9 55 -25z"/>
<path d="M60 820 c-11 -11 -20 -28 -20 -37 0 -31 133 -254 160 -268 14 -7 48
-18 76 -24 l51 -12 12 -63 c12 -62 12 -65 -18 -134 -38 -86 -39 -124 -6 -157
42 -43 108 -27 158 38 l26 35 49 -49 c57 -57 94 -64 138 -25 38 32 36 73 -4
161 l-32 70 24 65 24 65 56 14 c67 16 79 29 157 178 52 99 54 103 39 130 -13
22 -23 28 -50 28 -33 0 -38 -4 -82 -80 -25 -44 -52 -88 -60 -98 -19 -27 -156
-57 -256 -57 -78 0 -206 22 -244 41 -9 5 -36 43 -59 86 -64 116 -95 137 -139
93z m88 -86 c76 -132 72 -129 158 -150 108 -26 300 -25 399 2 l70 20 47 79
c65 112 74 122 88 108 10 -9 -2 -37 -50 -127 -61 -111 -65 -117 -104 -127 -91
-23 -88 -20 -119 -104 l-28 -80 35 -82 c41 -94 42 -96 20 -117 -28 -28 -55
-18 -110 42 l-54 57 -51 -57 c-51 -59 -82 -71 -107 -46 -19 19 -14 51 21 129
l33 74 -20 79 -21 80 -58 13 c-32 7 -66 17 -76 23 -24 13 -145 226 -136 240
12 20 29 5 63 -56z"/>
</g>
</svg>
