<?xml version="1.0" standalone="no"?>
<!DOCTYPE svg PUBLIC "-//W3C//DTD SVG 20010904//EN"
 "http://www.w3.org/TR/2001/REC-SVG-20010904/DTD/svg10.dtd">
<svg version="1.0" xmlns="http://www.w3.org/2000/svg"
 width="100.000000pt" height="100.000000pt" viewBox="0 0 100.000000 100.000000"
 preserveAspectRatio="xMidYMid meet">
<metadata>
Created by potrace 1.10, written by Peter Selinger 2001-2011
</metadata>
<g transform="translate(0.000000,100.000000) scale(0.100000,-0.100000)"
fill="#000000" stroke="none">
<path d="M220 800 c-11 -11 -20 -29 -20 -40 0 -17 -7 -20 -40 -20 -60 0 -80
-25 -80 -100 0 -60 0 -60 -30 -60 -37 0 -48 -20 -45 -86 3 -64 9 -74 46 -74
29 0 29 0 29 -60 0 -75 20 -100 80 -100 33 0 40 -3 40 -20 0 -37 35 -60 90
-60 79 0 90 17 90 140 l0 100 120 0 120 0 0 -100 c0 -123 11 -140 90 -140 55
0 90 23 90 60 0 17 7 20 40 20 60 0 80 25 80 100 0 60 0 60 29 60 37 0 45 12
47 75 2 65 -9 85 -46 85 -30 0 -30 0 -30 60 0 75 -20 100 -80 100 -33 0 -40 3
-40 20 0 37 -35 60 -90 60 -79 0 -90 -17 -90 -140 l0 -100 -120 0 -120 0 0
100 c0 123 -11 140 -90 140 -37 0 -55 -5 -70 -20z m115 -300 l0 -275 -45 0
-45 0 -3 265 c-1 146 0 271 3 278 3 9 19 12 47 10 l43 -3 0 -275z m420 0 l0
-275 -45 0 -45 0 -3 265 c-1 146 0 271 3 278 3 9 19 12 47 10 l43 -3 0 -275z
m-555 -1 l0 -200 -37 3 -38 3 -3 185 c-1 101 0 190 2 197 3 7 21 13 41 13 l35
0 0 -201z m675 1 l0 -195 -37 -3 -38 -3 0 201 0 201 38 -3 37 -3 0 -195z
m-795 0 c0 -33 -3 -40 -20 -40 -17 0 -20 7 -20 40 0 33 3 40 20 40 17 0 20 -7
20 -40z m540 0 l0 -40 -120 0 -120 0 0 40 0 40 120 0 120 0 0 -40z m340 0 c0
-33 -3 -40 -20 -40 -17 0 -20 7 -20 40 0 33 3 40 20 40 17 0 20 -7 20 -40z"/>
</g>
</svg>
