<?xml version="1.0" standalone="no"?>
<!DOCTYPE svg PUBLIC "-//W3C//DTD SVG 20010904//EN"
 "http://www.w3.org/TR/2001/REC-SVG-20010904/DTD/svg10.dtd">
<svg version="1.0" xmlns="http://www.w3.org/2000/svg"
 width="300.000000pt" height="300.000000pt" viewBox="0 0 300.000000 300.000000"
 preserveAspectRatio="xMidYMid meet">
<metadata>
Created by potrace 1.10, written by Peter Selinger 2001-2011
</metadata>
<g transform="translate(0.000000,300.000000) scale(0.100000,-0.100000)"
fill="#000000" stroke="none">
<path d="M615 2793 c-162 -40 -306 -135 -412 -270 l-33 -41 0 -269 0 -270 29
-39 c50 -68 210 -204 240 -204 4 0 12 -5 19 -12 14 -14 64 -32 157 -58 92 -26
202 -26 283 0 35 11 67 20 72 20 4 0 15 -26 24 -58 14 -51 16 -137 16 -700 l0
-642 40 -40 40 -40 130 0 130 0 40 40 41 41 -3 787 c-3 573 -7 810 -17 872
-18 123 -40 238 -56 295 -8 28 -16 59 -19 70 -21 88 -94 236 -156 319 -44 58
-125 128 -188 164 -89 50 -255 66 -377 35z m273 -122 c29 -10 58 -23 65 -30 6
-6 16 -11 22 -11 13 0 91 -80 126 -130 46 -64 106 -202 133 -305 65 -250 71
-338 71 -1070 l0 -650 -35 -3 c-38 -4 -80 -36 -80 -62 0 -26 42 -58 80 -62 30
-3 35 -7 35 -28 0 -25 -1 -25 -85 -25 l-85 0 -6 660 c-6 722 -3 689 -68 827
-39 84 -133 188 -169 188 -32 0 -62 -26 -62 -55 0 -11 20 -45 45 -74 25 -29
45 -58 45 -65 0 -20 -90 -46 -160 -46 -141 0 -281 61 -392 172 l-78 77 0 231
0 231 27 35 c50 67 225 184 274 184 9 0 32 7 50 15 50 21 183 19 247 -4z"/>
<path d="M907 2492 c-22 -24 -22 -66 0 -83 9 -8 36 -44 60 -81 52 -81 74 -96
108 -74 13 9 26 25 30 36 9 28 -34 114 -86 173 -46 52 -83 62 -112 29z"/>
<path d="M432 2247 c-28 -30 -28 -48 1 -75 30 -28 48 -28 75 1 28 30 28 48 -1
75 -30 28 -48 28 -75 -1z"/>
<path d="M2080 2794 c-175 -57 -308 -192 -390 -396 -49 -120 -66 -179 -94
-323 -42 -217 -46 -311 -46 -1082 l0 -743 40 -40 40 -40 130 0 130 0 40 40 40
40 0 642 c0 563 2 649 16 700 9 32 20 58 24 58 5 0 37 -9 72 -20 196 -61 454
21 634 203 100 102 94 79 94 383 l0 266 -32 41 c-82 104 -187 184 -318 240
-106 45 -289 60 -380 31z m257 -119 c19 -8 43 -15 52 -15 49 0 224 -117 274
-184 l27 -35 0 -231 0 -230 -72 -74 c-40 -40 -86 -80 -103 -89 -112 -59 -207
-87 -295 -87 -70 0 -160 26 -160 46 0 7 20 36 45 65 48 57 55 82 28 111 -31
35 -66 23 -127 -43 -71 -77 -89 -109 -133 -244 -15 -44 -17 -136 -22 -710 l-6
-660 -85 0 c-84 0 -85 0 -85 25 0 21 5 25 35 28 38 4 80 36 80 62 0 26 -42 58
-80 62 l-35 3 0 655 c0 740 4 807 71 1065 27 103 87 241 133 305 35 50 113
130 126 130 6 0 16 5 23 12 43 43 235 64 309 33z"/>
<path d="M1961 2463 c-52 -59 -95 -145 -86 -173 4 -11 17 -27 30 -36 34 -22
56 -7 108 74 24 37 51 73 60 81 22 18 22 64 -1 84 -33 30 -66 21 -111 -30z"/>
<path d="M2472 2247 c-28 -30 -28 -48 1 -75 30 -28 48 -28 75 1 28 30 28 48
-1 75 -30 28 -48 28 -75 -1z"/>
</g>
</svg>
