<?xml version="1.0" standalone="no"?>
<!DOCTYPE svg PUBLIC "-//W3C//DTD SVG 20010904//EN"
 "http://www.w3.org/TR/2001/REC-SVG-20010904/DTD/svg10.dtd">
<svg version="1.0" xmlns="http://www.w3.org/2000/svg"
 width="100.000000pt" height="100.000000pt" viewBox="0 0 100.000000 100.000000"
 preserveAspectRatio="xMidYMid meet">
<metadata>
Created by potrace 1.10, written by Peter Selinger 2001-2011
</metadata>
<g transform="translate(0.000000,100.000000) scale(0.100000,-0.100000)"
fill="#000000" stroke="none">
<path d="M687 954 c-4 -4 -7 -15 -7 -24 0 -9 -16 -30 -34 -47 -37 -32 -55 -78
-38 -95 14 -14 32 -1 32 22 0 10 16 31 36 47 27 22 36 37 37 62 2 32 -11 49
-26 35z"/>
<path d="M764 883 c-4 -10 -20 -32 -36 -49 -30 -32 -34 -64 -11 -72 7 -2 16 5
20 15 3 10 19 30 35 46 19 17 28 35 26 49 -4 28 -26 35 -34 11z"/>
<path d="M487 714 c-4 -4 -7 -29 -7 -56 0 -26 -4 -48 -8 -48 -4 0 -23 11 -42
25 -42 31 -80 32 -117 2 -23 -18 -39 -22 -88 -21 -79 3 -92 -2 -110 -36 -8
-16 -24 -31 -34 -35 -11 -3 -23 -15 -26 -25 -3 -10 -16 -20 -28 -22 -21 -3
-22 -7 -19 -77 4 -82 18 -119 65 -169 l31 -32 -46 0 c-26 0 -49 -4 -52 -8 -10
-17 19 -84 47 -108 l29 -24 418 0 418 0 29 24 c28 24 57 91 47 108 -3 4 -34 8
-70 8 -35 0 -64 2 -64 4 0 25 31 78 62 104 46 40 66 102 70 211 2 85 -9 101
-73 101 -36 0 -38 1 -41 38 l-3 37 -191 3 c-104 1 -193 -1 -197 -4z m353 -229
c0 -148 -4 -204 -14 -230 l-15 -35 -130 0 -130 0 -16 30 c-12 23 -15 69 -15
230 l0 200 160 0 160 0 0 -195z m-433 115 c10 -11 25 -20 33 -20 24 0 40 -21
40 -52 l0 -28 -196 0 c-127 0 -193 3 -189 10 3 6 13 10 21 10 8 0 19 11 24 25
12 31 37 42 61 26 15 -8 24 -8 39 1 16 10 24 10 42 -1 19 -12 23 -11 34 5 35
51 62 58 91 24z m547 -65 c-1 -70 -27 -155 -54 -180 -20 -18 -20 -17 -20 114
l0 132 38 -3 37 -3 -1 -60z m-472 -177 c2 -57 8 -111 12 -120 8 -17 -4 -18
-163 -18 l-170 0 -35 30 c-44 39 -86 123 -86 172 l0 38 219 0 219 0 4 -102z
m468 -188 c0 -5 -9 -19 -20 -30 -19 -19 -33 -20 -430 -20 -397 0 -411 1 -430
20 -11 11 -20 25 -20 30 0 7 157 10 450 10 293 0 450 -3 450 -10z"/>
</g>
</svg>
