<?xml version="1.0" standalone="no"?>
<!DOCTYPE svg PUBLIC "-//W3C//DTD SVG 20010904//EN"
 "http://www.w3.org/TR/2001/REC-SVG-20010904/DTD/svg10.dtd">
<svg version="1.0" xmlns="http://www.w3.org/2000/svg"
 width="100.000000pt" height="100.000000pt" viewBox="0 0 100.000000 100.000000"
 preserveAspectRatio="xMidYMid meet">
<metadata>
Created by potrace 1.10, written by Peter Selinger 2001-2011
</metadata>
<g transform="translate(0.000000,100.000000) scale(0.100000,-0.100000)"
fill="#000000" stroke="none">
<path d="M597 983 c-4 -3 -7 -32 -7 -64 0 -61 -13 -79 -58 -79 -31 0 -62 -42
-62 -83 0 -36 -1 -37 -35 -37 -22 0 -51 11 -77 28 -35 23 -52 27 -109 27 -59
0 -73 -4 -110 -30 -59 -41 -86 -99 -105 -225 -25 -167 -7 -438 33 -482 10 -11
30 -18 54 -18 33 0 43 6 82 53 24 28 63 80 86 115 l42 62 168 0 169 0 66 -93
c88 -125 104 -139 151 -135 27 2 43 10 56 28 41 58 51 408 14 544 -28 107 -71
154 -159 178 -53 14 -119 1 -166 -32 -19 -14 -44 -20 -79 -20 l-51 0 0 33 c0
39 15 57 46 57 43 0 74 39 81 100 4 42 2 59 -9 68 -8 6 -18 9 -21 5z m-268
-256 c35 -18 47 -32 62 -71 10 -27 24 -53 31 -58 7 -4 43 -8 80 -8 76 0 91 10
109 71 17 55 65 84 140 84 46 0 63 -5 93 -28 20 -16 44 -39 53 -53 42 -65 63
-288 44 -468 -14 -129 -21 -146 -60 -146 -25 0 -38 12 -88 81 -32 44 -71 96
-87 115 l-28 34 -175 0 -175 0 -26 -28 c-15 -16 -55 -68 -90 -115 -63 -87 -85
-101 -119 -79 -39 25 -52 376 -20 515 36 151 142 215 256 154z m261 -42 c0 -4
-7 -19 -15 -36 -15 -29 -18 -30 -77 -27 -59 3 -62 4 -75 36 l-13 32 90 0 c49
0 90 -2 90 -5z"/>
<path d="M232 648 c-7 -7 -12 -24 -12 -39 0 -24 -5 -28 -31 -31 -64 -6 -64
-70 0 -76 28 -3 31 -6 31 -37 0 -29 4 -36 25 -41 35 -9 58 13 53 48 -4 26 -2
28 28 28 23 0 37 6 44 20 16 30 -4 60 -40 60 -26 0 -30 4 -30 28 0 31 -16 52
-40 52 -9 0 -21 -5 -28 -12z m40 -55 c3 -36 5 -38 41 -41 20 -2 37 -7 37 -12
0 -5 -17 -10 -37 -12 -36 -3 -38 -5 -41 -40 -2 -21 -7 -38 -12 -38 -5 0 -10
17 -12 38 -3 35 -5 37 -40 40 -21 2 -38 7 -38 12 0 5 17 10 38 12 35 3 37 5
40 41 2 20 7 37 12 37 5 0 10 -17 12 -37z"/>
<path d="M714 639 c-20 -23 -11 -51 20 -57 41 -8 63 48 27 68 -26 13 -25 13
-47 -11z"/>
<path d="M636 561 c-19 -21 -12 -48 15 -56 38 -12 65 35 37 63 -17 17 -32 15
-52 -7z"/>
<path d="M790 565 c-26 -32 13 -81 48 -59 22 14 27 41 12 59 -16 19 -44 19
-60 0z"/>
<path d="M710 481 c-13 -25 -4 -48 21 -56 38 -12 65 35 37 63 -18 18 -46 14
-58 -7z"/>
<path d="M375 430 c-3 -5 0 -13 7 -15 25 -10 238 -1 238 10 0 14 -236 19 -245
5z"/>
<path d="M337 373 c-4 -3 -7 -19 -7 -35 0 -35 23 -34 28 1 4 25 -10 46 -21 34z"/>
<path d="M417 373 c-4 -3 -7 -19 -7 -35 0 -35 23 -34 28 1 4 25 -10 46 -21 34z"/>
<path d="M484 366 c-9 -23 0 -51 16 -51 10 0 15 10 15 29 0 32 -21 47 -31 22z"/>
<path d="M564 366 c-8 -21 -1 -49 14 -54 8 -2 12 7 12 27 0 33 -17 51 -26 27z"/>
<path d="M644 366 c-8 -21 -1 -49 14 -54 8 -2 12 7 12 27 0 33 -17 51 -26 27z"/>
</g>
</svg>
