<?xml version="1.0" standalone="no"?>
<!DOCTYPE svg PUBLIC "-//W3C//DTD SVG 20010904//EN"
 "http://www.w3.org/TR/2001/REC-SVG-20010904/DTD/svg10.dtd">
<svg version="1.0" xmlns="http://www.w3.org/2000/svg"
 width="100.000000pt" height="100.000000pt" viewBox="0 0 100.000000 100.000000"
 preserveAspectRatio="xMidYMid meet">
<metadata>
Created by potrace 1.10, written by Peter Selinger 2001-2011
</metadata>
<g transform="translate(0.000000,100.000000) scale(0.100000,-0.100000)"
fill="#000000" stroke="none">
<path d="M183 861 c-3 -12 -17 -23 -34 -26 -15 -4 -40 -16 -55 -27 -50 -40
-54 -66 -54 -335 0 -230 2 -250 20 -281 11 -18 34 -41 52 -52 31 -19 51 -20
368 -20 317 0 337 1 368 20 51 31 72 75 72 150 0 54 3 67 20 78 19 12 20 23
20 250 0 172 -3 241 -12 250 -9 9 -78 12 -250 12 -227 0 -238 -1 -250 -20 -10
-15 -24 -20 -59 -20 -38 0 -48 4 -52 20 -5 18 -14 20 -77 20 -63 0 -73 -2 -77
-19z m120 -41 c4 -17 14 -20 71 -20 l66 0 0 -208 c0 -148 3 -211 12 -220 9 -9
72 -12 220 -12 l208 0 0 -60 c0 -71 -15 -107 -51 -126 -37 -19 -653 -21 -694
-2 -51 23 -55 46 -55 307 0 165 4 248 12 266 14 31 55 55 93 55 18 0 29 6 32
20 4 16 14 20 43 20 29 0 39 -4 43 -20z m617 -200 l0 -220 -220 0 -220 0 0
220 0 220 220 0 220 0 0 -220z"/>
<path d="M164 707 c-2 -7 -3 -60 -2 -118 l3 -104 95 0 95 0 0 115 0 115 -93 3
c-70 2 -94 0 -98 -11z m156 -107 l0 -80 -60 0 -60 0 0 80 0 80 60 0 60 0 0
-80z"/>
<path d="M211 426 c-87 -48 -50 -186 49 -186 51 0 100 49 100 99 0 75 -83 124
-149 87z m89 -46 c11 -11 20 -29 20 -40 0 -26 -34 -60 -60 -60 -26 0 -60 34
-60 60 0 11 9 29 20 40 11 11 29 20 40 20 11 0 29 -9 40 -20z"/>
<path d="M410 305 c-15 -18 -10 -45 13 -59 34 -22 73 27 47 59 -16 19 -44 19
-60 0z"/>
<path d="M635 766 c-101 -44 -125 -178 -46 -257 65 -65 157 -65 222 0 124 124
-15 327 -176 257z m149 -65 c26 -27 31 -39 31 -81 0 -43 -5 -54 -33 -82 -28
-28 -39 -33 -82 -33 -43 0 -54 5 -82 33 -28 28 -33 39 -33 81 0 52 25 92 70
112 37 16 96 3 129 -30z"/>
</g>
</svg>
