<?xml version="1.0" standalone="no"?>
<!DOCTYPE svg PUBLIC "-//W3C//DTD SVG 20010904//EN"
 "http://www.w3.org/TR/2001/REC-SVG-20010904/DTD/svg10.dtd">
<svg version="1.0" xmlns="http://www.w3.org/2000/svg"
 width="100.000000pt" height="100.000000pt" viewBox="0 0 100.000000 100.000000"
 preserveAspectRatio="xMidYMid meet">
<metadata>
Created by potrace 1.10, written by Peter Selinger 2001-2011
</metadata>
<g transform="translate(0.000000,100.000000) scale(0.100000,-0.100000)"
fill="#000000" stroke="none">
<path d="M805 990 c-4 -6 -2 -17 4 -24 14 -17 2 -29 -16 -14 -20 16 -41 -5
-24 -25 9 -11 8 -17 -4 -27 -8 -7 -15 -20 -15 -28 0 -9 -32 -48 -70 -87 l-71
-71 -56 28 c-66 33 -93 34 -151 8 -35 -16 -47 -29 -68 -74 -30 -66 -35 -70
-104 -86 -78 -18 -111 -33 -154 -70 -52 -46 -68 -83 -68 -155 1 -84 35 -151
123 -237 88 -87 151 -119 234 -120 72 0 109 16 154 67 36 41 53 78 71 155 14
63 31 85 67 95 41 10 73 36 94 76 26 52 24 86 -9 152 l-28 56 71 71 c39 38 78
70 87 70 8 0 21 7 28 15 10 12 16 13 27 4 20 -17 41 4 25 24 -15 18 -3 30 15
15 19 -15 43 6 26 23 -8 8 -8 20 -3 35 12 30 4 51 -29 88 -34 36 -64 48 -96
36 -15 -6 -26 -6 -30 0 -8 13 -22 13 -30 0z m125 -65 l34 -35 -54 -55 c-29
-30 -56 -52 -60 -50 -4 2 -76 -65 -161 -150 l-154 -154 -27 28 -27 28 155 153
c85 85 154 158 154 164 0 11 90 106 100 106 3 0 21 -16 40 -35z m-392 -218
l42 -22 -72 -71 c-40 -39 -88 -77 -106 -84 -75 -29 -82 -139 -11 -176 57 -29
109 -10 139 50 10 23 50 72 88 109 l68 68 23 -50 c39 -82 14 -142 -72 -172
-53 -19 -66 -37 -88 -125 -11 -43 -31 -95 -44 -115 -31 -44 -92 -79 -136 -79
-123 0 -329 206 -329 328 0 45 35 106 79 137 20 13 72 33 115 44 89 22 103 33
127 94 18 47 68 87 108 87 14 -1 45 -11 69 -23z m-58 -227 c11 -11 20 -29 20
-40 0 -26 -34 -60 -60 -60 -11 0 -29 9 -40 20 -11 11 -20 29 -20 40 0 11 9 29
20 40 11 11 29 20 40 20 11 0 29 -9 40 -20z"/>
<path d="M840 895 c-24 -25 -41 -48 -37 -52 4 -4 28 14 53 39 26 25 42 48 37
51 -5 4 -29 -14 -53 -38z"/>
<path d="M880 855 c-24 -25 -41 -48 -37 -52 4 -4 28 14 53 39 26 25 42 48 37
51 -5 4 -29 -14 -53 -38z"/>
<path d="M205 360 c-19 -21 -18 -21 58 -98 l77 -77 20 20 20 21 -78 77 -78 78
-19 -21z"/>
</g>
</svg>
