<?xml version="1.0" standalone="no"?>
<!DOCTYPE svg PUBLIC "-//W3C//DTD SVG 20010904//EN"
 "http://www.w3.org/TR/2001/REC-SVG-20010904/DTD/svg10.dtd">
<svg version="1.0" xmlns="http://www.w3.org/2000/svg"
 width="100.000000pt" height="100.000000pt" viewBox="0 0 100.000000 100.000000"
 preserveAspectRatio="xMidYMid meet">
<metadata>
Created by potrace 1.10, written by Peter Selinger 2001-2011
</metadata>
<g transform="translate(0.000000,100.000000) scale(0.100000,-0.100000)"
fill="#000000" stroke="none">
<path d="M478 944 c-30 -16 -58 -61 -58 -94 0 -53 57 -110 110 -110 53 0 110
57 110 110 0 34 -28 78 -60 95 -36 19 -67 19 -102 -1z m99 -46 c29 -27 29 -65
1 -95 -27 -29 -65 -29 -95 -1 -29 27 -29 65 -1 95 27 29 65 29 95 1z"/>
<path d="M233 673 c-57 -62 -84 -98 -89 -122 -14 -71 51 -139 123 -128 29 5
34 3 39 -18 9 -38 -29 -135 -80 -206 -52 -71 -57 -105 -23 -137 29 -27 68 -28
91 -3 33 36 115 174 121 203 l7 30 29 -28 c27 -26 29 -33 29 -104 0 -67 3 -79
23 -98 30 -28 68 -28 95 1 20 21 22 34 22 141 l0 118 -60 62 -59 62 11 40 c6
21 12 45 14 52 3 9 19 2 50 -22 54 -41 67 -43 112 -16 l32 20 0 -241 c0 -224
1 -240 18 -237 16 3 17 24 20 246 l2 243 32 28 c25 23 30 32 24 55 -3 15 -18
32 -31 38 -21 9 -25 18 -25 55 0 36 -3 43 -20 43 -17 0 -20 -7 -20 -53 0 -51
-1 -54 -36 -70 -35 -17 -36 -17 -72 12 -20 16 -46 38 -56 50 -21 24 -117 56
-145 48 -10 -2 -26 2 -36 9 -36 27 -57 15 -142 -73z m123 33 c10 -26 -44 -210
-67 -228 -29 -24 -58 -23 -86 4 -40 38 -31 66 53 156 77 83 91 93 100 68z
m118 -17 c31 -8 58 -26 97 -65 29 -30 59 -54 66 -54 8 0 36 11 63 25 59 30 83
32 78 8 -3 -18 -110 -82 -137 -83 -7 0 -35 18 -62 41 -27 23 -55 39 -62 36 -7
-3 -23 -42 -36 -87 l-23 -83 62 -62 61 -61 -3 -110 c-3 -109 -3 -109 -28 -109
-25 0 -25 2 -28 88 l-3 87 -84 72 c-47 39 -87 80 -91 90 -5 16 49 248 63 271
6 10 16 9 67 -4z m-93 -416 c-7 -21 -36 -73 -64 -116 -39 -61 -55 -77 -71 -75
-35 5 -30 35 19 102 25 36 53 91 62 121 l16 56 26 -25 c24 -24 24 -28 12 -63z"/>
</g>
</svg>
