<?xml version="1.0" standalone="no"?>
<!DOCTYPE svg PUBLIC "-//W3C//DTD SVG 20010904//EN"
 "http://www.w3.org/TR/2001/REC-SVG-20010904/DTD/svg10.dtd">
<svg version="1.0" xmlns="http://www.w3.org/2000/svg"
 width="100.000000pt" height="100.000000pt" viewBox="0 0 100.000000 100.000000"
 preserveAspectRatio="xMidYMid meet">
<metadata>
Created by potrace 1.10, written by Peter Selinger 2001-2011
</metadata>
<g transform="translate(0.000000,100.000000) scale(0.100000,-0.100000)"
fill="#000000" stroke="none">
<path d="M225 915 l-25 -24 0 -391 0 -391 25 -24 24 -25 251 0 251 0 24 25 25
24 0 391 0 391 -25 24 -24 25 -251 0 -251 0 -24 -25z m523 -27 c17 -17 17
-759 0 -776 -17 -17 -479 -17 -496 0 -17 17 -17 759 0 776 17 17 479 17 496 0z"/>
<path d="M284 847 c-2 -7 -3 -69 -2 -138 l3 -124 215 0 215 0 0 135 0 135
-213 3 c-169 2 -214 0 -218 -11z m396 -127 l0 -100 -180 0 -180 0 0 100 0 100
180 0 180 0 0 -100z"/>
<path d="M432 529 c-48 -14 -109 -80 -123 -131 -23 -89 12 -182 88 -229 57
-36 154 -34 210 3 62 41 88 90 88 168 0 77 -26 127 -85 166 -43 29 -125 39
-178 23z m131 -43 c103 -43 128 -177 48 -257 -65 -65 -157 -65 -222 0 -124
123 13 325 174 257z"/>
<path d="M460 380 c-11 -11 -20 -29 -20 -40 0 -11 9 -29 20 -40 11 -11 29 -20
40 -20 26 0 60 34 60 60 0 11 -9 29 -20 40 -11 11 -29 20 -40 20 -11 0 -29 -9
-40 -20z m56 -31 c10 -17 -13 -36 -27 -22 -12 12 -4 33 11 33 5 0 12 -5 16
-11z"/>
</g>
</svg>
