<?xml version="1.0" standalone="no"?>
<!DOCTYPE svg PUBLIC "-//W3C//DTD SVG 20010904//EN"
 "http://www.w3.org/TR/2001/REC-SVG-20010904/DTD/svg10.dtd">
<svg version="1.0" xmlns="http://www.w3.org/2000/svg"
 width="100.000000pt" height="100.000000pt" viewBox="0 0 100.000000 100.000000"
 preserveAspectRatio="xMidYMid meet">
<metadata>
Created by potrace 1.10, written by Peter Selinger 2001-2011
</metadata>
<g transform="translate(0.000000,100.000000) scale(0.100000,-0.100000)"
fill="#000000" stroke="none">
<path d="M362 794 c-58 -40 -65 -119 -14 -166 34 -32 63 -39 108 -27 42 12 74
58 74 108 0 49 -54 101 -107 101 -21 0 -49 -7 -61 -16z m92 -60 c33 -32 13
-74 -36 -74 -38 0 -55 33 -33 66 18 28 46 31 69 8z"/>
<path d="M596 629 l-78 -47 31 -16 c30 -16 33 -16 68 8 20 14 39 24 41 22 2
-3 -2 -29 -8 -59 l-13 -54 -107 43 c-89 37 -113 43 -134 34 -14 -5 -26 -11
-26 -12 0 -2 -13 -41 -29 -88 l-28 -85 -102 0 -103 0 -41 45 -40 45 5 -87 c7
-100 32 -158 87 -195 32 -22 44 -23 197 -23 l162 0 11 30 10 30 -162 0 c-178
0 -193 4 -222 60 -22 42 -20 51 11 40 40 -16 424 -13 424 3 0 6 3 21 6 33 5
20 2 20 -85 16 -50 -2 -91 -1 -91 4 1 24 38 125 46 125 8 0 184 -71 193 -78 4
-2 -15 -110 -25 -145 -3 -10 -11 -18 -18 -18 -21 0 -42 -31 -61 -90 -10 -30
-20 -61 -23 -67 -3 -9 7 -13 31 -13 34 0 35 2 47 50 13 55 34 80 52 62 8 -8 8
-23 -1 -56 -15 -60 -16 -58 21 -54 28 3 34 8 38 33 l5 30 87 5 c67 4 93 10
115 26 47 35 74 95 80 181 l6 77 -32 -26 c-42 -36 -89 -48 -183 -48 -56 0 -78
4 -78 13 0 6 14 73 30 147 16 74 28 135 27 136 -1 1 -15 3 -32 6 -23 4 -48 -6
-109 -43z m294 -339 c-22 -54 -54 -70 -135 -70 -83 0 -107 15 -98 63 l5 27 97
1 c53 0 105 4 116 8 27 11 30 7 15 -29z"/>
</g>
</svg>
