<?xml version="1.0" standalone="no"?>
<!DOCTYPE svg PUBLIC "-//W3C//DTD SVG 20010904//EN"
 "http://www.w3.org/TR/2001/REC-SVG-20010904/DTD/svg10.dtd">
<svg version="1.0" xmlns="http://www.w3.org/2000/svg"
 width="64.000000pt" height="64.000000pt" viewBox="0 0 64.000000 64.000000"
 preserveAspectRatio="xMidYMid meet">
<metadata>
Created by potrace 1.10, written by Peter Selinger 2001-2011
</metadata>
<g transform="translate(0.000000,64.000000) scale(0.100000,-0.100000)"
fill="#000000" stroke="none">
<path d="M67 574 c-4 -4 -7 -78 -7 -165 0 -154 -1 -159 -30 -221 -31 -64 -35
-84 -24 -112 5 -14 42 -16 314 -16 272 0 309 2 314 16 11 28 6 48 -22 104 -25
52 -27 65 -32 225 l-5 170 -251 3 c-138 1 -253 -1 -257 -4z m493 -169 c0 -146
2 -159 25 -205 14 -27 25 -52 25 -55 0 -3 -130 -5 -290 -5 -160 0 -290 2 -290
5 0 2 10 25 22 50 l22 45 193 0 c122 0 193 4 193 10 0 6 -70 10 -190 10 l-190
0 0 150 0 150 240 0 240 0 0 -155z m60 -305 c0 -20 -7 -20 -300 -20 -293 0
-300 0 -300 20 0 20 7 20 300 20 293 0 300 0 300 -20z"/>
<path d="M104 527 c-2 -7 -3 -65 -2 -128 l3 -114 215 0 215 0 0 125 0 125
-213 3 c-170 2 -214 0 -218 -11z m416 -117 l0 -110 -200 0 -200 0 0 110 0 110
200 0 200 0 0 -110z"/>
<path d="M325 479 c-4 -6 -5 -13 -2 -16 7 -7 27 6 27 18 0 12 -17 12 -25 -2z"/>
<path d="M280 430 c-11 -11 -20 -29 -20 -40 0 -24 34 -60 56 -60 8 0 24 5 35
10 16 9 17 14 6 30 -9 16 -9 24 0 40 11 16 10 21 -6 30 -29 15 -49 12 -71 -10z
m55 -40 c0 -30 -4 -40 -15 -40 -35 0 -52 44 -28 68 25 25 43 14 43 -28z"/>
<path d="M480 250 c0 -5 14 -10 30 -10 17 0 30 5 30 10 0 6 -13 10 -30 10 -16
0 -30 -4 -30 -10z"/>
<path d="M90 210 c0 -5 9 -10 20 -10 11 0 20 5 20 10 0 6 -9 10 -20 10 -11 0
-20 -4 -20 -10z"/>
<path d="M150 210 c0 -5 9 -10 20 -10 11 0 20 5 20 10 0 6 -9 10 -20 10 -11 0
-20 -4 -20 -10z"/>
<path d="M210 210 c0 -5 9 -10 20 -10 11 0 20 5 20 10 0 6 -9 10 -20 10 -11 0
-20 -4 -20 -10z"/>
<path d="M270 210 c0 -5 9 -10 20 -10 11 0 20 5 20 10 0 6 -9 10 -20 10 -11 0
-20 -4 -20 -10z"/>
<path d="M330 210 c0 -5 9 -10 20 -10 11 0 20 5 20 10 0 6 -9 10 -20 10 -11 0
-20 -4 -20 -10z"/>
<path d="M390 210 c0 -5 9 -10 20 -10 11 0 20 5 20 10 0 6 -9 10 -20 10 -11 0
-20 -4 -20 -10z"/>
<path d="M450 210 c0 -5 9 -10 20 -10 11 0 20 5 20 10 0 6 -9 10 -20 10 -11 0
-20 -4 -20 -10z"/>
<path d="M510 210 c0 -5 9 -10 20 -10 11 0 20 5 20 10 0 6 -9 10 -20 10 -11 0
-20 -4 -20 -10z"/>
<path d="M120 170 c0 -5 9 -10 20 -10 11 0 20 5 20 10 0 6 -9 10 -20 10 -11 0
-20 -4 -20 -10z"/>
<path d="M180 170 c0 -5 9 -10 20 -10 11 0 20 5 20 10 0 6 -9 10 -20 10 -11 0
-20 -4 -20 -10z"/>
<path d="M240 170 c0 -6 33 -10 80 -10 47 0 80 4 80 10 0 6 -33 10 -80 10 -47
0 -80 -4 -80 -10z"/>
<path d="M420 170 c0 -5 9 -10 20 -10 11 0 20 5 20 10 0 6 -9 10 -20 10 -11 0
-20 -4 -20 -10z"/>
<path d="M480 170 c0 -5 9 -10 20 -10 11 0 20 5 20 10 0 6 -9 10 -20 10 -11 0
-20 -4 -20 -10z"/>
</g>
</svg>
