<?xml version="1.0" standalone="no"?>
<!DOCTYPE svg PUBLIC "-//W3C//DTD SVG 20010904//EN"
 "http://www.w3.org/TR/2001/REC-SVG-20010904/DTD/svg10.dtd">
<svg version="1.0" xmlns="http://www.w3.org/2000/svg"
 width="100.000000pt" height="100.000000pt" viewBox="0 0 100.000000 100.000000"
 preserveAspectRatio="xMidYMid meet">
<metadata>
Created by potrace 1.10, written by Peter Selinger 2001-2011
</metadata>
<g transform="translate(0.000000,100.000000) scale(0.100000,-0.100000)"
fill="#000000" stroke="none">
<path d="M451 926 c-87 -48 -50 -186 49 -186 51 0 100 49 100 99 0 75 -83 124
-149 87z m89 -46 c11 -11 20 -29 20 -40 0 -26 -34 -60 -60 -60 -26 0 -60 34
-60 60 0 11 9 29 20 40 11 11 29 20 40 20 11 0 29 -9 40 -20z"/>
<path d="M358 704 c-47 -25 -58 -60 -58 -189 l0 -115 -40 0 -39 0 -3 68 c-2
52 -6 67 -18 67 -13 0 -15 -24 -15 -155 0 -131 2 -155 15 -155 12 0 16 15 18
68 l3 67 39 0 c27 0 47 -7 60 -20 11 -11 29 -20 40 -20 11 0 29 9 40 20 17 17
33 20 100 20 67 0 83 -3 100 -20 25 -25 55 -25 80 0 13 13 33 20 60 20 l39 0
3 -67 c2 -53 6 -68 18 -68 13 0 15 24 15 155 0 131 -2 155 -15 155 -12 0 -16
-15 -18 -67 l-3 -68 -39 0 -40 0 0 115 c0 185 -20 205 -202 205 -80 -1 -121
-5 -140 -16z m281 -47 c20 -23 21 -32 19 -158 -3 -111 -6 -134 -18 -134 -12 0
-16 22 -20 115 -4 93 -8 115 -20 115 -12 0 -16 -19 -18 -97 l-3 -98 -79 0 -79
0 -3 98 c-2 78 -6 97 -18 97 -12 0 -16 -22 -20 -115 -4 -93 -8 -115 -20 -115
-12 0 -15 23 -18 134 -2 126 -1 135 19 158 21 22 30 23 139 23 109 0 118 -1
139 -23z"/>
<path d="M107 534 c-4 -4 -7 -35 -7 -70 0 -53 -3 -62 -20 -67 -26 -7 -26 -27
0 -34 16 -4 20 -15 22 -72 2 -51 6 -66 18 -66 13 0 15 24 15 154 0 145 -6 177
-28 155z"/>
<path d="M865 528 c-3 -8 -4 -79 -3 -158 3 -121 5 -145 18 -145 12 0 16 15 18
66 2 57 6 68 22 72 11 3 20 10 20 17 0 7 -9 14 -20 17 -16 4 -20 15 -22 71 -2
41 -8 67 -15 70 -7 2 -15 -3 -18 -10z"/>
<path d="M421 218 c-23 -107 -33 -130 -52 -111 -8 8 -6 34 9 98 16 72 17 85 5
81 -8 -3 -18 -6 -22 -6 -12 0 -43 -157 -36 -180 13 -42 83 -51 104 -12 5 9 19
62 30 116 12 55 24 103 27 108 3 4 -6 8 -19 8 -22 0 -25 -7 -46 -102z"/>
<path d="M514 312 c3 -5 15 -53 27 -108 11 -54 25 -107 30 -116 21 -39 91 -30
104 12 7 23 -24 180 -36 180 -4 0 -14 3 -22 6 -12 4 -11 -9 5 -81 15 -64 17
-90 9 -98 -19 -19 -29 4 -52 111 -21 95 -24 102 -46 102 -13 0 -22 -4 -19 -8z"/>
</g>
</svg>
