<?xml version="1.0" standalone="no"?>
<!DOCTYPE svg PUBLIC "-//W3C//DTD SVG 20010904//EN"
 "http://www.w3.org/TR/2001/REC-SVG-20010904/DTD/svg10.dtd">
<svg version="1.0" xmlns="http://www.w3.org/2000/svg"
 width="300.000000pt" height="300.000000pt" viewBox="0 0 300.000000 300.000000"
 preserveAspectRatio="xMidYMid meet">
<metadata>
Created by potrace 1.10, written by Peter Selinger 2001-2011
</metadata>
<g transform="translate(0.000000,300.000000) scale(0.100000,-0.100000)"
fill="#000000" stroke="none">
<path d="M1377 2791 c-26 -10 -53 -23 -59 -29 -7 -7 -17 -12 -23 -12 -14 0
-105 -92 -105 -106 0 -5 -5 -15 -11 -21 -22 -22 -49 -117 -49 -173 0 -56 27
-151 49 -173 6 -6 11 -16 11 -22 0 -22 97 -103 155 -131 79 -37 173 -44 247
-18 29 10 60 24 69 31 8 7 20 13 25 13 12 1 104 95 104 107 0 5 5 14 11 20 22
22 49 117 49 173 0 56 -27 151 -49 173 -6 6 -11 16 -11 22 0 14 -92 105 -106
105 -5 0 -15 5 -21 11 -7 7 -36 20 -65 30 -65 23 -157 23 -221 0z m206 -121
c58 -26 101 -69 127 -127 52 -119 -4 -259 -127 -313 -193 -85 -398 120 -313
313 55 123 194 179 313 127z"/>
<path d="M1295 1959 c-22 -4 -76 -13 -120 -18 -219 -26 -292 -57 -365 -157
-22 -29 -40 -58 -40 -65 0 -6 -6 -23 -14 -37 -8 -15 -22 -47 -31 -72 -17 -42
-25 -64 -59 -142 -7 -18 -28 -69 -46 -113 -18 -44 -38 -93 -45 -110 -48 -114
-54 -166 -27 -226 50 -108 172 -157 282 -113 22 9 48 13 57 9 15 -6 11 -13
-27 -47 -25 -22 -99 -80 -165 -130 -66 -50 -135 -107 -153 -127 -98 -107 -94
-256 8 -358 83 -82 24 -77 931 -80 l806 -3 54 24 c65 29 126 88 147 142 26 67
26 142 2 198 -21 46 -97 128 -167 178 -50 36 -158 121 -197 156 -57 50 -46 64
29 37 114 -41 229 8 279 118 25 55 17 111 -29 222 -7 17 -27 66 -45 110 -18
44 -39 96 -48 115 -8 19 -20 49 -27 65 -7 17 -27 63 -44 104 -17 40 -31 78
-31 83 0 17 -79 116 -107 135 -68 45 -141 66 -293 83 -41 5 -99 14 -129 19
-63 13 -328 13 -386 0z m414 -124 c58 -9 131 -20 161 -26 30 -6 75 -13 99 -16
55 -7 108 -58 134 -129 10 -27 24 -62 31 -79 8 -16 28 -66 46 -110 18 -44 39
-96 48 -115 8 -19 20 -48 27 -65 7 -16 25 -57 40 -89 15 -33 30 -77 32 -97 5
-33 1 -42 -25 -69 -35 -34 -60 -37 -136 -16 -28 8 -80 22 -116 31 -36 9 -88
23 -116 31 -28 8 -59 14 -69 14 -10 0 -41 6 -69 14 -28 8 -80 22 -116 31 -36
9 -88 23 -116 31 -63 18 -85 18 -148 0 -28 -8 -79 -22 -113 -30 -35 -9 -91
-23 -125 -32 -35 -8 -86 -22 -114 -30 -28 -8 -59 -14 -69 -14 -10 0 -42 -7
-72 -15 -29 -8 -77 -22 -106 -30 -78 -22 -104 -19 -138 14 -40 41 -38 66 16
186 12 29 29 68 59 138 7 17 21 52 31 77 18 47 33 81 58 140 9 19 24 57 34 84
26 71 79 122 134 129 24 3 69 10 99 16 223 43 422 51 599 26z m-178 -776 c11
-6 41 -14 67 -19 26 -5 67 -14 92 -20 76 -20 154 -39 182 -45 19 -3 32 -17 47
-49 26 -54 83 -114 181 -191 41 -33 77 -63 80 -66 3 -3 29 -23 59 -44 73 -50
120 -94 137 -127 33 -64 3 -148 -67 -188 -36 -19 -51 -20 -579 -20 l-542 0
-29 29 c-39 40 -39 82 0 122 16 16 38 29 48 29 10 0 50 7 88 16 39 8 99 22
135 29 414 84 420 86 420 134 0 60 -43 72 -160 43 -25 -6 -80 -18 -122 -26
-179 -36 -236 -48 -290 -62 -32 -8 -69 -14 -84 -14 -54 0 -133 -60 -166 -126
-19 -39 -22 -103 -7 -154 3 -13 -20 -15 -158 -18 -153 -2 -164 -1 -196 19 -69
46 -95 124 -62 188 14 28 43 56 99 96 207 147 349 279 364 336 9 36 8 36 117
62 33 8 80 20 105 27 25 6 66 15 92 20 26 5 55 13 65 19 23 14 59 14 84 0z"/>
<path d="M1439 1767 c-39 -32 -81 -123 -100 -214 -11 -57 -28 -82 -64 -92 -16
-5 -43 -14 -60 -20 -16 -6 -73 -25 -125 -42 -96 -31 -140 -59 -140 -89 0 -19
40 -60 60 -60 7 0 94 28 194 61 176 60 226 86 226 118 0 9 7 36 15 61 8 25 17
57 20 73 4 18 12 27 25 27 13 0 21 -9 25 -27 3 -16 12 -48 20 -73 8 -25 15
-52 15 -61 0 -32 50 -59 227 -118 101 -33 189 -61 196 -61 18 0 57 42 57 61 0
30 -47 58 -165 99 -66 23 -135 45 -153 50 -40 10 -59 33 -67 80 -3 19 -13 50
-21 68 -8 18 -14 39 -14 46 0 7 -11 34 -25 59 -43 77 -97 97 -146 54z"/>
</g>
</svg>
