<?xml version="1.0" standalone="no"?>
<!DOCTYPE svg PUBLIC "-//W3C//DTD SVG 20010904//EN"
 "http://www.w3.org/TR/2001/REC-SVG-20010904/DTD/svg10.dtd">
<svg version="1.0" xmlns="http://www.w3.org/2000/svg"
 width="100.000000pt" height="100.000000pt" viewBox="0 0 100.000000 100.000000"
 preserveAspectRatio="xMidYMid meet">
<metadata>
Created by potrace 1.10, written by Peter Selinger 2001-2011
</metadata>
<g transform="translate(0.000000,100.000000) scale(0.100000,-0.100000)"
fill="#000000" stroke="none">
<path d="M100 500 l0 -350 400 0 400 0 0 350 0 350 -400 0 -400 0 0 -350z m95
299 c0 -20 -6 -25 -33 -27 -22 -2 -34 2 -38 12 -11 29 3 44 38 41 27 -2 33 -6
33 -26z m70 21 c4 -6 10 -8 15 -5 5 3 119 6 252 6 l243 0 1 -163 c0 -90 -3
-168 -8 -175 -5 -6 -5 -14 -1 -16 5 -3 8 -70 8 -149 l-1 -143 -238 -3 c-158
-1 -243 1 -251 8 -9 8 -15 8 -20 0 -3 -5 -15 -10 -25 -10 -17 0 -18 10 -17
144 1 80 5 148 9 152 4 4 4 12 0 18 -7 12 -12 326 -5 339 6 10 31 9 38 -3z
m610 -20 c0 -21 -5 -26 -33 -28 -22 -2 -34 2 -38 12 -10 27 2 41 37 41 30 0
34 -3 34 -25z m-675 -75 c0 -22 -4 -25 -34 -25 -37 0 -51 12 -42 35 3 9 19 15
41 15 31 0 35 -3 35 -25z m675 0 c0 -16 -8 -21 -37 -23 -35 -3 -38 -1 -38 23
0 24 3 26 38 23 29 -2 37 -7 37 -23z m-680 -76 c0 -20 -6 -25 -33 -27 -22 -2
-34 2 -38 12 -11 29 3 44 38 41 27 -2 33 -6 33 -26z m680 1 c0 -21 -5 -26 -33
-28 -22 -2 -34 2 -38 12 -10 27 2 41 37 41 30 0 34 -3 34 -25z m-675 -75 c0
-22 -4 -25 -34 -25 -37 0 -51 12 -42 35 3 9 19 15 41 15 31 0 35 -3 35 -25z
m675 0 c0 -16 -8 -21 -37 -23 -35 -3 -38 -1 -38 23 0 24 3 26 38 23 29 -2 37
-7 37 -23z m-680 -76 c0 -20 -6 -25 -33 -27 -22 -2 -34 2 -38 12 -11 29 3 44
38 41 27 -2 33 -6 33 -26z m680 1 c0 -21 -5 -26 -33 -28 -22 -2 -34 2 -38 12
-10 27 2 41 37 41 30 0 34 -3 34 -25z m-675 -75 c0 -22 -4 -25 -34 -25 -37 0
-51 12 -42 35 3 9 19 15 41 15 31 0 35 -3 35 -25z m675 0 c0 -16 -8 -21 -37
-23 -35 -3 -38 -1 -38 23 0 24 3 26 38 23 29 -2 37 -7 37 -23z m-680 -76 c0
-20 -6 -25 -33 -27 -22 -2 -34 2 -38 12 -11 29 3 44 38 41 27 -2 33 -6 33 -26z
m680 1 c0 -21 -5 -26 -33 -28 -22 -2 -34 2 -38 12 -10 27 2 41 37 41 30 0 34
-3 34 -25z m-675 -75 c0 -22 -4 -25 -34 -25 -37 0 -51 12 -42 35 3 9 19 15 41
15 31 0 35 -3 35 -25z m675 0 c0 -16 -8 -21 -37 -23 -35 -3 -38 -1 -38 23 0
24 3 26 38 23 29 -2 37 -7 37 -23z m-680 -76 c0 -20 -6 -25 -33 -27 -22 -2
-34 2 -38 12 -11 29 3 44 38 41 27 -2 33 -6 33 -26z m680 1 c0 -21 -5 -26 -33
-28 -22 -2 -34 2 -38 12 -10 27 2 41 37 41 30 0 34 -3 34 -25z"/>
<path d="M266 781 c-4 -5 -2 -12 3 -15 5 -4 12 -2 15 3 4 5 2 12 -3 15 -5 4
-12 2 -15 -3z"/>
<path d="M266 731 c-4 -5 -2 -12 3 -15 5 -4 12 -2 15 3 4 5 2 12 -3 15 -5 4
-12 2 -15 -3z"/>
<path d="M266 681 c-4 -5 -2 -12 3 -15 5 -4 12 -2 15 3 4 5 2 12 -3 15 -5 4
-12 2 -15 -3z"/>
<path d="M266 631 c-4 -5 -2 -12 3 -15 5 -4 12 -2 15 3 4 5 2 12 -3 15 -5 4
-12 2 -15 -3z"/>
<path d="M266 581 c-4 -5 -2 -12 3 -15 5 -4 12 -2 15 3 4 5 2 12 -3 15 -5 4
-12 2 -15 -3z"/>
<path d="M266 531 c-4 -5 -2 -12 3 -15 5 -4 12 -2 15 3 4 5 2 12 -3 15 -5 4
-12 2 -15 -3z"/>
<path d="M266 481 c-4 -5 -2 -12 3 -15 5 -4 12 -2 15 3 4 5 2 12 -3 15 -5 4
-12 2 -15 -3z"/>
<path d="M316 481 c-4 -5 -2 -12 3 -15 5 -4 12 -2 15 3 4 5 2 12 -3 15 -5 4
-12 2 -15 -3z"/>
<path d="M366 481 c-4 -5 -2 -12 3 -15 5 -4 12 -2 15 3 4 5 2 12 -3 15 -5 4
-12 2 -15 -3z"/>
<path d="M416 481 c-4 -5 -2 -12 3 -15 5 -4 12 -2 15 3 4 5 2 12 -3 15 -5 4
-12 2 -15 -3z"/>
<path d="M466 481 c-4 -5 -2 -12 3 -15 5 -4 12 -2 15 3 4 5 2 12 -3 15 -5 4
-12 2 -15 -3z"/>
<path d="M516 481 c-4 -5 -2 -12 3 -15 5 -4 12 -2 15 3 4 5 2 12 -3 15 -5 4
-12 2 -15 -3z"/>
<path d="M566 481 c-4 -5 -2 -12 3 -15 5 -4 12 -2 15 3 4 5 2 12 -3 15 -5 4
-12 2 -15 -3z"/>
<path d="M616 481 c-4 -5 -2 -12 3 -15 5 -4 12 -2 15 3 4 5 2 12 -3 15 -5 4
-12 2 -15 -3z"/>
<path d="M666 481 c-4 -5 -2 -12 3 -15 5 -4 12 -2 15 3 4 5 2 12 -3 15 -5 4
-12 2 -15 -3z"/>
<path d="M716 481 c-4 -5 -2 -12 3 -15 5 -4 12 -2 15 3 4 5 2 12 -3 15 -5 4
-12 2 -15 -3z"/>
<path d="M266 431 c-4 -5 -2 -12 3 -15 5 -4 12 -2 15 3 4 5 2 12 -3 15 -5 4
-12 2 -15 -3z"/>
<path d="M266 381 c-4 -5 -2 -12 3 -15 5 -4 12 -2 15 3 4 5 2 12 -3 15 -5 4
-12 2 -15 -3z"/>
<path d="M266 331 c-4 -5 -2 -12 3 -15 5 -4 12 -2 15 3 4 5 2 12 -3 15 -5 4
-12 2 -15 -3z"/>
<path d="M266 281 c-4 -5 -2 -12 3 -15 5 -4 12 -2 15 3 4 5 2 12 -3 15 -5 4
-12 2 -15 -3z"/>
<path d="M266 231 c-4 -5 -2 -12 3 -15 5 -4 12 -2 15 3 4 5 2 12 -3 15 -5 4
-12 2 -15 -3z"/>
</g>
</svg>
