<?xml version="1.0" standalone="no"?>
<!DOCTYPE svg PUBLIC "-//W3C//DTD SVG 20010904//EN"
 "http://www.w3.org/TR/2001/REC-SVG-20010904/DTD/svg10.dtd">
<svg version="1.0" xmlns="http://www.w3.org/2000/svg"
 width="300.000000pt" height="300.000000pt" viewBox="0 0 300.000000 300.000000"
 preserveAspectRatio="xMidYMid meet">
<metadata>
Created by potrace 1.10, written by Peter Selinger 2001-2011
</metadata>
<g transform="translate(0.000000,300.000000) scale(0.100000,-0.100000)"
fill="#000000" stroke="none">
<path d="M733 2789 c-55 -25 -98 -69 -123 -126 -20 -45 -20 -63 -20 -1173 0
-1095 1 -1129 19 -1171 23 -51 80 -108 134 -132 34 -15 100 -17 746 -17 679 0
710 1 752 19 52 23 99 70 128 128 21 42 21 43 21 1172 0 1043 -1 1133 -17
1168 -24 54 -81 111 -132 134 -42 18 -71 19 -755 18 -679 -1 -713 -2 -753 -20z
m1499 -139 l38 -41 0 -1119 0 -1120 -40 -40 -40 -40 -700 0 -699 0 -41 38 -40
39 0 1121 0 1122 40 40 40 40 702 0 701 0 39 -40z"/>
<path d="M847 2552 c-15 -17 -17 -59 -17 -399 l0 -380 23 -21 23 -22 615 0
616 0 21 23 c22 23 22 27 22 398 l0 376 -23 21 -23 22 -621 0 c-588 0 -621 -1
-636 -18z m1178 -402 l0 -295 -535 0 -535 0 -3 285 c-1 157 0 290 3 297 3 11
114 13 537 11 l533 -3 0 -295z"/>
<path d="M1339 1590 c-60 -16 -83 -26 -129 -52 -8 -4 -26 -13 -39 -18 -31 -14
-177 -160 -191 -191 -5 -13 -14 -31 -19 -39 -43 -72 -71 -183 -71 -280 0 -97
28 -208 71 -280 5 -8 14 -26 19 -39 20 -46 162 -176 230 -210 246 -123 510
-82 701 108 190 191 231 455 108 701 -34 68 -164 210 -210 230 -13 5 -31 14
-39 19 -114 68 -292 89 -431 51z m272 -116 c88 -27 138 -56 204 -116 132 -122
187 -316 136 -474 -31 -94 -60 -144 -118 -205 -189 -199 -504 -196 -691 6 -60
66 -89 116 -116 204 -31 102 -17 225 38 341 27 58 148 179 206 206 115 55 240
69 341 38z"/>
<path d="M1415 1173 c-44 -23 -65 -44 -86 -85 -76 -149 91 -315 239 -238 135
71 135 252 0 321 -45 23 -112 24 -153 2z m112 -125 c29 -27 29 -45 1 -75 -27
-29 -45 -29 -75 -1 -29 27 -29 45 -1 75 27 29 45 29 75 1z"/>
</g>
</svg>
