<?xml version="1.0" standalone="no"?>
<!DOCTYPE svg PUBLIC "-//W3C//DTD SVG 20010904//EN"
 "http://www.w3.org/TR/2001/REC-SVG-20010904/DTD/svg10.dtd">
<svg version="1.0" xmlns="http://www.w3.org/2000/svg"
 width="100.000000pt" height="100.000000pt" viewBox="0 0 100.000000 100.000000"
 preserveAspectRatio="xMidYMid meet">
<metadata>
Created by potrace 1.10, written by Peter Selinger 2001-2011
</metadata>
<g transform="translate(0.000000,100.000000) scale(0.100000,-0.100000)"
fill="#000000" stroke="none">
<path d="M402 991 c-6 -4 -20 -32 -31 -62 -10 -31 -99 -248 -196 -484 -117
-283 -174 -430 -167 -437 7 -7 142 45 404 153 216 89 433 177 482 195 49 18
93 39 98 46 13 20 2 53 -51 163 -90 186 -197 294 -375 380 -95 45 -144 59
-164 46z m137 -77 c143 -66 256 -165 324 -283 29 -49 97 -194 97 -205 0 -2
-19 -11 -42 -19 -24 -8 -50 -18 -59 -21 -12 -5 -20 4 -33 38 -28 72 -107 186
-177 252 -64 60 -175 133 -236 154 l-31 11 20 60 c23 69 18 68 137 13z m-61
-160 c134 -75 239 -188 301 -325 l28 -63 -81 -34 c-44 -18 -97 -40 -117 -47
-20 -7 -51 -21 -68 -29 l-31 -16 6 29 c11 53 -40 111 -97 111 -32 0 -74 -26
-87 -55 -19 -40 -14 -71 14 -105 15 -17 25 -32 23 -34 -11 -8 -303 -125 -306
-122 -2 1 7 27 20 57 13 30 27 62 31 73 6 17 8 18 24 2 44 -39 122 2 122 64 0
35 -38 80 -68 80 -18 0 -16 7 17 85 l35 84 24 -22 c18 -16 36 -22 73 -22 42 0
53 5 81 33 28 28 33 39 33 82 0 40 -5 54 -30 80 -18 19 -43 33 -66 36 l-36 6
21 50 c18 44 23 48 46 43 14 -4 53 -22 88 -41z m-83 -119 c16 -15 25 -36 25
-55 0 -70 -86 -105 -135 -56 -24 24 -24 26 -9 63 9 21 20 46 25 56 14 26 65
22 94 -8z m65 -315 c11 -11 20 -29 20 -40 0 -26 -34 -60 -60 -60 -26 0 -60 34
-60 60 0 11 9 29 20 40 11 11 29 20 40 20 11 0 29 -9 40 -20z m-246 -42 c23
-38 -36 -77 -64 -43 -10 12 -10 21 -1 41 13 29 47 30 65 2z"/>
<path d="M565 555 c-16 -15 -25 -36 -25 -55 0 -16 -4 -30 -8 -30 -12 0 -32
-46 -32 -71 0 -32 31 -77 61 -90 79 -32 168 59 129 131 -7 13 -7 21 0 25 5 3
10 20 10 36 0 40 -39 79 -80 79 -19 0 -40 -9 -55 -25z m83 -27 c7 -7 12 -20
12 -30 0 -15 -3 -17 -19 -8 -11 5 -29 10 -40 10 -12 0 -21 4 -21 8 0 14 23 32
40 32 9 0 21 -5 28 -12z m-8 -88 c11 -11 20 -29 20 -40 0 -26 -34 -60 -60 -60
-11 0 -29 9 -40 20 -11 11 -20 29 -20 40 0 11 9 29 20 40 11 11 29 20 40 20
11 0 29 -9 40 -20z"/>
</g>
</svg>
