<?xml version="1.0" standalone="no"?>
<!DOCTYPE svg PUBLIC "-//W3C//DTD SVG 20010904//EN"
 "http://www.w3.org/TR/2001/REC-SVG-20010904/DTD/svg10.dtd">
<svg version="1.0" xmlns="http://www.w3.org/2000/svg"
 width="100.000000pt" height="100.000000pt" viewBox="0 0 100.000000 100.000000"
 preserveAspectRatio="xMidYMid meet">
<metadata>
Created by potrace 1.10, written by Peter Selinger 2001-2011
</metadata>
<g transform="translate(0.000000,100.000000) scale(0.100000,-0.100000)"
fill="#000000" stroke="none">
<path d="M785 766 c-22 -7 -83 -33 -135 -58 l-95 -44 -120 37 c-66 21 -135 38
-153 38 -40 1 -92 -24 -92 -44 0 -9 26 -31 58 -51 31 -20 68 -43 81 -52 25
-15 24 -15 -59 -54 l-83 -38 -53 40 c-61 46 -106 53 -124 20 -9 -17 -3 -38 31
-116 52 -118 72 -132 172 -113 70 12 164 43 220 71 22 11 41 17 44 15 2 -3 -7
-65 -21 -138 -22 -114 -24 -135 -12 -147 16 -16 43 -10 78 18 14 11 58 92 107
197 l82 178 122 62 c135 68 178 103 161 130 -34 54 -128 76 -209 49z m143 -42
l37 -15 -24 -18 c-13 -10 -76 -44 -141 -76 l-118 -58 -78 -170 c-74 -161 -106
-217 -123 -217 -5 0 -4 19 1 43 35 162 53 277 44 273 -6 -2 -52 -23 -103 -46
-106 -47 -244 -85 -280 -75 -19 4 -33 24 -64 92 -22 47 -38 88 -35 91 3 2 30
-14 61 -37 30 -23 61 -44 69 -47 7 -3 141 52 297 122 156 69 300 132 319 140
48 17 93 17 138 -2z m-535 -51 c53 -15 97 -30 97 -33 0 -3 -20 -13 -45 -23
l-45 -19 -80 47 c-44 26 -80 49 -80 51 0 12 66 2 153 -23z"/>
</g>
</svg>
