<?xml version="1.0" standalone="no"?>
<!DOCTYPE svg PUBLIC "-//W3C//DTD SVG 20010904//EN"
 "http://www.w3.org/TR/2001/REC-SVG-20010904/DTD/svg10.dtd">
<svg version="1.0" xmlns="http://www.w3.org/2000/svg"
 width="100.000000pt" height="100.000000pt" viewBox="0 0 100.000000 100.000000"
 preserveAspectRatio="xMidYMid meet">
<metadata>
Created by potrace 1.10, written by Peter Selinger 2001-2011
</metadata>
<g transform="translate(0.000000,100.000000) scale(0.100000,-0.100000)"
fill="#000000" stroke="none">
<path d="M363 953 c-7 -2 -13 -13 -13 -24 0 -11 -7 -22 -16 -26 -13 -5 -15
-14 -10 -45 4 -25 3 -37 -3 -33 -16 9 -44 -42 -39 -73 3 -24 0 -27 -21 -27
-26 0 -64 -53 -60 -84 1 -9 -3 -28 -10 -42 -11 -22 -7 -64 28 -284 23 -142 44
-261 47 -266 7 -12 461 -12 468 0 6 9 86 500 86 526 0 8 -9 24 -20 35 -11 11
-20 28 -20 38 0 10 -5 23 -12 30 -6 6 -11 29 -10 51 1 31 -4 46 -28 71 -25 26
-33 30 -45 20 -21 -17 -31 -7 -65 65 -31 66 -59 87 -85 65 -8 -6 -20 -8 -26
-4 -7 4 -18 0 -25 -10 -12 -17 -14 -16 -33 3 -20 20 -59 26 -88 14z m65 -45
c15 -15 16 -31 0 -22 -6 4 -21 -5 -34 -21 -21 -26 -24 -27 -30 -11 -4 10 -3
21 3 25 5 3 12 14 16 24 7 20 28 22 45 5z m149 -33 c-6 -15 -50 -12 -64 5 -14
18 -8 31 11 24 8 -3 17 0 22 7 5 9 11 7 21 -7 7 -10 12 -23 10 -29z m-77 -55
c0 -3 -18 -5 -40 -5 -30 0 -40 3 -38 14 5 23 50 31 66 13 6 -9 12 -18 12 -22z
m120 -26 c0 -19 -30 -39 -61 -40 -16 -1 -29 3 -29 10 1 31 14 56 31 56 10 0
21 5 25 12 8 12 34 -16 34 -38z m-244 -49 c-34 -32 -51 -28 -51 11 0 22 4 28
17 26 9 -1 20 3 23 9 5 8 12 6 23 -5 14 -14 13 -18 -12 -41z m114 20 c20 -24
8 -50 -25 -51 -45 -1 -61 6 -43 20 8 6 17 19 21 29 8 21 30 22 47 2z m220 -6
c9 -17 8 -23 -7 -35 -26 -19 -32 -17 -43 12 -13 33 -13 32 8 37 30 8 31 8 42
-14z m-85 -81 c-5 -24 -15 -39 -32 -47 -22 -10 -24 -9 -18 9 4 12 1 27 -5 35
-13 15 -6 50 8 41 4 -2 14 -1 22 4 22 14 32 -3 25 -42z m-319 -29 c1 -21 -2
-27 -9 -20 -6 6 -21 11 -34 11 -26 0 -27 3 -13 29 6 12 17 17 32 14 18 -3 23
-12 24 -34z m99 22 c6 0 11 -8 13 -18 2 -15 -4 -18 -38 -18 -42 0 -46 4 -30
36 8 14 15 17 28 10 9 -5 22 -9 27 -10z m135 -26 c0 -6 -18 -10 -40 -10 -35 0
-40 2 -38 19 2 10 11 20 21 22 11 1 22 5 25 9 7 7 32 -23 32 -40z m200 3 c0
-4 -6 -8 -14 -8 -8 0 -21 -7 -30 -15 -13 -14 -16 -13 -26 6 -12 21 -6 54 8 45
4 -2 14 -1 22 4 14 9 40 -12 40 -32z m-410 -38 c0 -5 -5 -10 -11 -10 -5 0 -7
5 -4 10 3 6 8 10 11 10 2 0 4 -4 4 -10z m120 0 c0 -5 -4 -10 -10 -10 -5 0 -10
5 -10 10 0 6 5 10 10 10 6 0 10 -4 10 -10z m115 0 c3 -5 1 -10 -4 -10 -6 0
-11 5 -11 10 0 6 2 10 4 10 3 0 8 -4 11 -10z m-267 -42 c7 -16 17 -28 22 -28
5 0 15 12 22 28 9 19 21 27 38 27 17 0 29 -8 38 -27 7 -16 17 -28 22 -28 5 0
15 12 22 28 9 19 21 27 38 27 17 0 29 -8 38 -27 7 -16 17 -28 22 -28 5 0 15
12 22 28 9 19 21 27 38 27 17 0 29 -8 38 -27 7 -16 17 -28 22 -28 5 0 15 12
22 28 15 31 49 40 67 18 10 -12 6 -58 -23 -239 -20 -123 -36 -234 -36 -246 0
-17 -6 -21 -31 -21 -28 0 -30 2 -25 27 11 58 39 384 33 389 -3 4 -12 4 -20 1
-9 -3 -18 -55 -31 -183 -23 -237 -22 -234 -53 -234 l-25 0 6 103 c13 234 12
311 -5 315 -20 4 -29 -51 -29 -172 0 -45 -3 -118 -7 -163 -5 -70 -9 -83 -24
-83 -19 0 -18 -6 -36 290 -7 101 -11 125 -23 125 -16 0 -18 -82 -5 -307 l6
-108 -28 0 -29 0 -18 188 c-10 103 -20 197 -23 210 -5 21 -27 30 -36 15 -4 -7
24 -292 37 -381 4 -30 3 -32 -25 -32 -23 0 -29 4 -29 21 0 12 -16 123 -36 246
-29 181 -33 227 -23 239 18 22 52 13 67 -18z"/>
</g>
</svg>
