<?xml version="1.0" standalone="no"?>
<!DOCTYPE svg PUBLIC "-//W3C//DTD SVG 20010904//EN"
 "http://www.w3.org/TR/2001/REC-SVG-20010904/DTD/svg10.dtd">
<svg version="1.0" xmlns="http://www.w3.org/2000/svg"
 width="100.000000pt" height="100.000000pt" viewBox="0 0 100.000000 100.000000"
 preserveAspectRatio="xMidYMid meet">
<metadata>
Created by potrace 1.10, written by Peter Selinger 2001-2011
</metadata>
<g transform="translate(0.000000,100.000000) scale(0.100000,-0.100000)"
fill="#000000" stroke="none">
<path d="M90 987 c-50 -17 -80 -67 -80 -134 0 -29 6 -64 13 -76 8 -12 31 -97
52 -189 33 -142 42 -168 57 -168 10 0 18 2 18 5 0 3 -18 80 -40 172 -22 91
-38 168 -36 170 8 8 140 -29 208 -59 127 -54 235 -126 347 -232 81 -77 185
-212 168 -219 -7 -2 -67 -13 -134 -23 -104 -16 -123 -21 -123 -36 0 -22 6 -22
143 2 62 11 131 22 155 25 53 6 88 24 127 64 26 28 29 38 27 88 -3 64 -32 130
-95 211 -146 191 -463 381 -662 398 -33 3 -71 7 -85 9 -14 1 -41 -2 -60 -8z
m164 -42 c192 -41 383 -150 542 -309 95 -96 164 -208 164 -268 0 -32 -29 -67
-77 -92 l-30 -15 -31 47 c-156 241 -429 433 -697 491 -84 18 -93 27 -81 76 3
13 18 37 32 54 30 36 67 40 178 16z"/>
<path d="M127 386 c-8 -8 -18 -40 -22 -71 -5 -47 -3 -61 15 -92 20 -34 20 -37
5 -77 -12 -31 -14 -49 -6 -68 13 -36 70 -68 119 -68 35 0 45 5 68 35 23 30 32
35 69 35 35 0 53 7 94 40 56 44 61 60 31 90 -26 26 -29 26 -78 -10 -41 -29
-102 -41 -102 -20 0 6 9 10 19 10 27 0 61 46 61 82 0 19 -10 40 -29 59 -40 40
-82 39 -123 -1 -26 -27 -30 -36 -25 -68 6 -35 5 -36 -9 -17 -11 14 -14 33 -10
69 3 27 1 57 -5 67 -12 23 -52 25 -72 5z m37 -75 c-8 -64 14 -97 97 -146 75
-44 112 -45 167 -5 45 32 52 35 52 21 0 -20 -81 -61 -122 -61 -37 0 -47 -5
-79 -42 -35 -41 -37 -41 -67 -29 -17 7 -38 22 -48 32 -16 18 -17 22 -1 55 22
45 21 60 -4 95 -17 25 -20 38 -14 79 4 28 11 50 16 50 6 0 7 -21 3 -49z m180
-7 c31 -30 9 -84 -34 -84 -24 0 -50 26 -50 50 0 10 7 26 16 34 8 9 24 16 34
16 10 0 26 -7 34 -16z m-79 -94 c3 -5 2 -10 -4 -10 -5 0 -13 5 -16 10 -3 6 -2
10 4 10 5 0 13 -4 16 -10z"/>
</g>
</svg>
