<?xml version="1.0" standalone="no"?>
<!DOCTYPE svg PUBLIC "-//W3C//DTD SVG 20010904//EN"
 "http://www.w3.org/TR/2001/REC-SVG-20010904/DTD/svg10.dtd">
<svg version="1.0" xmlns="http://www.w3.org/2000/svg"
 width="100.000000pt" height="100.000000pt" viewBox="0 0 100.000000 100.000000"
 preserveAspectRatio="xMidYMid meet">
<metadata>
Created by potrace 1.10, written by Peter Selinger 2001-2011
</metadata>
<g transform="translate(0.000000,100.000000) scale(0.100000,-0.100000)"
fill="#000000" stroke="none">
<path d="M378 941 c-117 -30 -231 -124 -287 -235 -88 -174 -54 -388 82 -526
146 -146 357 -180 538 -86 26 13 60 27 77 31 34 7 56 29 67 65 4 14 19 42 32
63 88 140 94 330 13 471 -63 111 -190 204 -309 226 -75 14 -135 12 -213 -9z
m272 -50 c153 -59 253 -195 267 -363 6 -71 -5 -132 -39 -211 l-21 -48 -31 52
c-17 28 -36 60 -42 71 -20 34 -24 32 -75 -26 -71 -79 -115 -101 -209 -101 -94
0 -138 22 -209 102 -38 42 -54 54 -62 46 -15 -15 18 -70 68 -114 58 -50 118
-73 200 -75 63 -1 77 -5 110 -31 21 -17 52 -37 68 -46 l30 -16 -40 -17 c-155
-65 -341 -29 -461 90 -226 227 -123 614 186 701 72 20 188 14 260 -14z m155
-615 c19 -46 19 -75 -2 -98 -29 -32 -83 -19 -161 39 l-33 25 33 17 33 17 42
-40 c34 -31 46 -37 55 -28 9 9 4 21 -26 51 l-39 40 24 28 24 29 18 -22 c10
-13 24 -39 32 -58z"/>
<path d="M255 626 c-39 -17 -62 -43 -48 -57 7 -7 23 -4 49 10 49 26 79 26 128
0 44 -23 70 -13 45 17 -33 41 -117 55 -174 30z"/>
<path d="M615 626 c-39 -17 -62 -43 -48 -57 7 -7 23 -4 49 10 49 26 79 26 128
0 44 -23 70 -13 45 17 -33 41 -117 55 -174 30z"/>
</g>
</svg>
