<?xml version="1.0" standalone="no"?>
<!DOCTYPE svg PUBLIC "-//W3C//DTD SVG 20010904//EN"
 "http://www.w3.org/TR/2001/REC-SVG-20010904/DTD/svg10.dtd">
<svg version="1.0" xmlns="http://www.w3.org/2000/svg"
 width="100.000000pt" height="100.000000pt" viewBox="0 0 100.000000 100.000000"
 preserveAspectRatio="xMidYMid meet">
<metadata>
Created by potrace 1.10, written by Peter Selinger 2001-2011
</metadata>
<g transform="translate(0.000000,100.000000) scale(0.100000,-0.100000)"
fill="#000000" stroke="none">
<path d="M295 951 c-11 -5 -31 -21 -45 -36 -34 -37 -35 -112 -2 -148 l23 -24
-23 -15 c-14 -9 -39 -13 -63 -11 -48 5 -96 -22 -125 -69 -33 -54 -25 -113 22
-164 19 -22 19 -22 -11 -44 -46 -32 -60 -68 -63 -161 l-3 -84 30 -14 c33 -16
209 -22 257 -8 27 7 27 6 30 -45 4 -73 25 -83 178 -83 153 0 174 10 178 83 3
51 3 52 30 45 48 -14 224 -8 257 8 l30 14 -3 84 c-3 93 -17 129 -63 161 -30
22 -30 22 -11 44 47 51 55 110 22 164 -31 51 -76 74 -131 68 -37 -4 -51 -1
-63 13 -15 16 -15 20 -2 30 49 41 36 138 -23 178 -105 70 -225 -44 -166 -157
9 -17 20 -30 26 -30 6 0 -3 -12 -21 -26 -17 -15 -39 -43 -50 -63 -17 -32 -19
-33 -20 -12 0 15 -15 39 -39 61 l-39 37 21 22 c17 16 22 34 22 71 0 42 -5 54
-31 81 -33 33 -92 46 -129 30z m100 -56 c50 -49 15 -135 -55 -135 -41 0 -80
39 -80 80 0 41 39 80 80 80 19 0 40 -9 55 -25z m316 -4 c37 -37 37 -65 0 -102
-35 -34 -68 -37 -105 -8 -20 16 -26 29 -26 59 0 30 6 43 26 59 37 29 70 26
105 -8z m-316 -187 c31 -15 65 -64 65 -96 0 -7 -14 -21 -30 -30 -78 -44 -92
-143 -30 -213 18 -19 17 -21 -11 -46 -28 -26 -29 -26 -29 -5 -1 37 -37 102
-69 126 -32 22 -32 22 -13 44 57 62 55 148 -4 196 -15 13 -14 16 12 27 40 17
70 16 109 -3z m308 5 c12 -7 23 -13 25 -14 2 -2 -8 -20 -23 -40 -38 -58 -33
-117 17 -171 19 -22 19 -22 -13 -44 -33 -24 -68 -89 -69 -127 0 -21 -1 -21
-30 5 -29 26 -29 27 -11 47 63 69 50 168 -29 213 -90 51 40 179 133 131z
m-474 -43 c47 -25 63 -83 37 -135 -35 -66 -137 -66 -172 0 -47 91 44 182 135
135z m640 0 c67 -35 65 -143 -4 -174 -91 -41 -179 51 -131 137 26 47 84 63
135 37z m-320 -120 c67 -35 65 -143 -4 -174 -51 -23 -107 -7 -131 39 -47 91
44 182 135 135z m-301 -126 c49 -30 72 -75 72 -142 l0 -57 -37 -10 c-21 -6
-67 -11 -103 -11 -36 0 -82 5 -103 11 l-37 10 0 57 c0 125 111 201 208 142z
m640 0 c49 -30 72 -75 72 -142 l0 -57 -37 -10 c-21 -6 -67 -11 -103 -11 -36 0
-82 5 -102 11 l-38 10 0 57 c0 125 111 201 208 142z m-320 -120 c49 -30 72
-75 72 -142 l0 -57 -37 -10 c-49 -14 -157 -14 -205 0 l-38 10 0 57 c0 125 111
201 208 142z"/>
</g>
</svg>
