<?xml version="1.0" standalone="no"?>
<!DOCTYPE svg PUBLIC "-//W3C//DTD SVG 20010904//EN"
 "http://www.w3.org/TR/2001/REC-SVG-20010904/DTD/svg10.dtd">
<svg version="1.0" xmlns="http://www.w3.org/2000/svg"
 width="100.000000pt" height="100.000000pt" viewBox="0 0 100.000000 100.000000"
 preserveAspectRatio="xMidYMid meet">
<metadata>
Created by potrace 1.10, written by Peter Selinger 2001-2011
</metadata>
<g transform="translate(0.000000,100.000000) scale(0.100000,-0.100000)"
fill="#000000" stroke="none">
<path d="M299 673 c-93 -90 -113 -121 -100 -156 5 -13 17 -27 26 -31 39 -14
61 -4 122 56 l63 62 40 -39 40 -39 -67 -69 c-38 -38 -79 -73 -92 -78 -30 -12
-131 6 -183 32 -44 23 -58 24 -58 5 0 -17 84 -54 153 -67 75 -13 143 2 272 64
104 49 114 52 190 52 66 0 90 -5 137 -27 39 -18 60 -23 64 -16 4 6 -1 17 -12
25 -24 18 -139 53 -172 53 -20 0 -56 30 -152 125 -159 157 -157 157 -271 48z
m241 -67 c60 -60 110 -111 110 -112 0 -2 -11 -4 -25 -4 -14 0 -68 -23 -121
-51 -53 -27 -98 -48 -100 -46 -2 2 23 30 56 62 33 33 60 66 60 73 0 15 -92
112 -107 112 -5 0 -38 -29 -73 -65 -66 -66 -88 -76 -110 -50 -10 13 2 29 76
105 56 57 95 90 106 88 9 -2 67 -52 128 -112z"/>
<path d="M661 724 c-26 -21 -31 -33 -31 -68 0 -71 67 -114 129 -82 59 31 70
99 22 147 -37 37 -79 38 -120 3z m99 -24 c53 -53 -14 -136 -75 -96 -33 22 -35
78 -3 100 30 21 54 20 78 -4z"/>
<path d="M625 396 c-27 -7 -95 -35 -149 -62 -95 -47 -104 -49 -180 -49 -66 1
-92 6 -138 27 -39 18 -60 23 -64 16 -10 -16 23 -37 100 -60 104 -32 174 -22
302 42 156 77 231 83 353 29 52 -23 61 -23 61 -5 0 17 -83 53 -151 66 -62 12
-70 12 -134 -4z"/>
</g>
</svg>
