<?xml version="1.0" standalone="no"?>
<!DOCTYPE svg PUBLIC "-//W3C//DTD SVG 20010904//EN"
 "http://www.w3.org/TR/2001/REC-SVG-20010904/DTD/svg10.dtd">
<svg version="1.0" xmlns="http://www.w3.org/2000/svg"
 width="100.000000pt" height="100.000000pt" viewBox="0 0 100.000000 100.000000"
 preserveAspectRatio="xMidYMid meet">
<metadata>
Created by potrace 1.10, written by Peter Selinger 2001-2011
</metadata>
<g transform="translate(0.000000,100.000000) scale(0.100000,-0.100000)"
fill="#000000" stroke="none">
<path d="M145 855 c-50 -49 -15 -135 55 -135 41 0 80 39 80 80 0 41 -39 80
-80 80 -19 0 -40 -9 -55 -25z m95 -15 c11 -11 20 -29 20 -40 0 -26 -34 -60
-60 -60 -26 0 -60 34 -60 60 0 11 9 29 20 40 11 11 29 20 40 20 11 0 29 -9 40
-20z"/>
<path d="M492 849 c-70 -27 -163 -114 -198 -185 -23 -47 -26 -61 -19 -107 11
-77 9 -161 -5 -188 -7 -13 -42 -50 -77 -82 -34 -32 -63 -66 -63 -76 0 -21 60
-81 82 -81 9 0 43 29 75 63 32 35 69 70 82 77 27 14 111 16 188 5 46 -7 60 -4
107 19 73 36 158 128 186 203 39 103 15 204 -67 287 -81 82 -185 105 -291 65z
m203 -24 c94 -45 150 -134 150 -235 -1 -83 -35 -149 -117 -225 -66 -62 -115
-81 -180 -71 -39 6 -55 18 -147 110 -95 95 -104 107 -108 149 -8 65 11 110 75
178 52 56 102 91 162 110 39 13 121 5 165 -16z m-374 -438 c-19 -18 -31 -25
-28 -15 3 9 9 33 13 53 l7 37 21 -21 21 -21 -34 -33z m68 -46 c-49 -62 -165
-190 -173 -190 -12 -1 -66 49 -66 60 0 9 67 72 155 147 l60 51 22 -21 22 -21
-20 -26z m55 -10 c16 -18 15 -19 -19 -25 -20 -4 -44 -10 -53 -13 -11 -4 -6 6
12 25 35 37 38 38 60 13z"/>
<path d="M730 630 c0 -5 5 -10 10 -10 6 0 10 5 10 10 0 6 -4 10 -10 10 -5 0
-10 -4 -10 -10z"/>
<path d="M770 630 c0 -5 5 -10 10 -10 6 0 10 5 10 10 0 6 -4 10 -10 10 -5 0
-10 -4 -10 -10z"/>
<path d="M710 590 c0 -5 5 -10 10 -10 6 0 10 5 10 10 0 6 -4 10 -10 10 -5 0
-10 -4 -10 -10z"/>
<path d="M750 590 c0 -5 5 -10 10 -10 6 0 10 5 10 10 0 6 -4 10 -10 10 -5 0
-10 -4 -10 -10z"/>
<path d="M790 590 c0 -5 5 -10 10 -10 6 0 10 5 10 10 0 6 -4 10 -10 10 -5 0
-10 -4 -10 -10z"/>
<path d="M730 550 c0 -5 5 -10 10 -10 6 0 10 5 10 10 0 6 -4 10 -10 10 -5 0
-10 -4 -10 -10z"/>
<path d="M770 550 c0 -5 5 -10 10 -10 6 0 10 5 10 10 0 6 -4 10 -10 10 -5 0
-10 -4 -10 -10z"/>
<path d="M385 470 c33 -33 62 -60 64 -60 3 0 -21 27 -54 60 -33 33 -62 60 -64
60 -3 0 21 -27 54 -60z"/>
<path d="M470 386 c0 -2 8 -10 18 -17 15 -13 16 -12 3 4 -13 16 -21 21 -21 13z"/>
<path d="M510 340 c0 -5 5 -10 10 -10 6 0 10 5 10 10 0 6 -4 10 -10 10 -5 0
-10 -4 -10 -10z"/>
</g>
</svg>
